<svg xmlns="http://www.w3.org/2000/svg" xmlns:xlink="http://www.w3.org/1999/xlink" width="32" height="32" id="svg5274" version="1.1"><defs id="defs5276"><linearGradient gradientTransform="matrix(-1.91288 0 0 1.88643 31.313 1.192)" xlink:href="#linearGradient5188" id="linearGradient5194" x1="1.148" y1="8.28" x2="15.239" y2="8.28" gradientUnits="userSpaceOnUse"/><linearGradient id="linearGradient5188"><stop offset="0" id="stop5190" stop-color="#0479ba" stop-opacity="1"/><stop id="stop3758" offset="1" stop-color="#c7daff" stop-opacity="1"/></linearGradient></defs><g id="layer1"><g id="g3760" fill-rule="nonzero" fill-opacity="1"><path d="M8.737 31.028c-.569-.346-.837-.935-1.093-1.467-.242-.53-.503-1.056-.67-1.609-.107-.356-.12-.47-.19-.831-.134-.832-.14-1.673-.147-2.51-.007-.557-.013-1.114.082-1.666.053-.311.117-.523.2-.83a5.589 5.589 0 011.123-2.071c.116-.138.246-.268.369-.402a6.776 6.776 0 011.769-1.251c.368-.18.574-.241.964-.379.94-.296 1.943-.348 2.936-.38.816-.013 1.636-.042 2.445.07.164.022.324.055.486.082.355.073.633.117.973.236.156.055.6.264.454.192-1.768-.867-1.104-.566-.661-.205.123.1.231.213.347.319.688.713.942 1.437 1.108 2.33.094.852-.145 1.686-.447 2.49-.413.85-.914 1.664-1.348 2.506-.33.762-.766 1.509-.96 2.308.03.664-.033.365 1.673.921.086.028.136-.107.195-.167.255-.261.436-.577.626-.873.492-.821.977-1.644 1.508-2.447.603-.856 1.25-1.69 1.887-2.527.647-.838 1.298-1.674 1.947-2.51.667-.857 1.349-1.704 2.107-2.504.749-.752 1.476-1.52 2.25-2.253.483-.4.938-.816 1.37-1.255.205-.183.372-.4.59-.571.073-.058.239-.156.32-.207.018-.011.181-.11.201-.143.29-.496-1.027-.683-1.593-.953-.036-.017-.083 0-.124-.004-.058-.004-.115-.012-.173-.018-.77-.08-1.473-.354-2.164-.64.286.152-1.259-.6-.947-.445.32.159.636.324.964.47.172.075-.329-.174-.493-.262-.509-.27-.48-.257-.987-.534-.987-.552-1.968-1.114-2.95-1.671-.661-.384-1.312-.784-1.883-1.263-.33-.276-.48-.438-.78-.737-.727-.779-1.36-1.616-2.01-2.442-.59-.8-1.248-1.561-1.908-2.32l-.233-.263-.187-.215c-.037-.042-.062-.096-.114-.123-.11-.057-1.667-1.381-1.686-.55-.002.073.043.142.065.213.323.738.743 1.44 1.1 2.167.423.819.73 1.674 1.05 2.524.32.808.435 1.652.5 2.498.03.542.042 1.085.036 1.628-.005.378.013.228-.046.525-.021.013-.04.047-.063.038-.029-.012-.063-.09-.034-.077.506.214.984.473 1.487.692.036.016-.057-.05-.08-.079-.038-.049-.088-.16-.114-.214-.087-.117-.131-.202-.28-.279-1.508-.776-1.525-.899-2.874-1.042a20.084 20.084 0 00-2.861-.027c-1.138.117-2.233.42-3.33.691-1.011.27-2.036.53-2.997.916-.198.08-.39.172-.585.258-.926.455-1.769 1.038-2.436 1.753-.123.131-.231.271-.346.406-.387.527-.73 1.082-.958 1.674-.138.36-.155.479-.244.848-.166.834-.17 1.682-.178 2.525-.034.87.074 1.73.253 2.585.22.87.53 1.718.87 2.558.317.902.858 1.722 1.42 2.526.6.903 1.374 1.587 2.303 2.243.822.54 1.69 1.026 2.548 1.521l.26.14 1.64.542-.28-.141c-.88-.489-1.754-.99-2.598-1.523-.914-.623-1.744-1.32-2.324-2.196-.56-.794-1.107-1.602-1.424-2.494a20.898 20.898 0 01-.88-2.538c-.183-.846-.295-1.697-.26-2.558.005-.835.007-1.675.159-2.502.082-.358.098-.48.227-.83.216-.582.55-1.126.922-1.646.111-.132.215-.27.333-.397.65-.705 1.479-1.274 2.392-1.712.193-.083.383-.172.579-.25.962-.382 1.987-.631 3-.893 1.092-.27 2.185-.569 3.324-.657.953-.045 1.91-.034 2.858.064.308.042.487.057.782.134.107.028.408.155.315.102-.407-.234-.84-.433-1.263-.645-.063-.031.125.064.182.103.042.028.075.066.113.099.023.044.135.334.158.347.534.294 1.077.578 1.645.821.044.02.096-.03.131-.06.038-.034.053-.082.08-.123.063-.73-.028-1.47-.03-2.2-.06-.858-.168-1.714-.487-2.534-.323-.852-.623-1.712-1.046-2.534-.34-.711-.745-1.4-1.043-2.124-.02-.057-.016-.123-.058-.17-.017-.018-.056.03-.08.018-.509-.237-.99-.514-1.498-.753-.06-.028.106.075.152.12.16.155.28.34.452.489.683.751 1.348 1.517 1.94 2.324.652.827 1.285 1.668 2.002 2.456.287.293.46.482.774.754.565.488 1.211.895 1.872 1.284.982.558 1.964 1.117 2.95 1.672 1.421.786 2.87 1.54 4.374 2.204.724.292 1.463.553 2.261.65.06.01.122.016.182.029.036.008.139.05.107.032-.483-.263-.99-.494-1.462-.77-.026-.016.054-.055.08-.04.065.034-.291.124-.163.133-.065.044-.286.19-.338.232-.216.175-.377.398-.577.586-.418.442-.872.855-1.324 1.271-.34.333-.655.68-.982 1.022-.557.581-.256.258-.83.836-.138.138-.273.279-.41.418-.766.802-1.454 1.65-2.123 2.512-.65.836-1.3 1.673-1.948 2.51-.64.84-1.286 1.678-1.896 2.534-.535.8-1.021 1.623-1.533 2.434-.147.21-.274.409-.446.605-.06.069-.122.137-.196.195-.044.034-.2.043-.154.075 1.7 1.151 1.69 1.173 1.352.678.006-.086 0-.173.019-.258.046-.196.226-.61.302-.786.18-.42.363-.84.566-1.251.102-.199.326-.639.434-.835.307-.561.668-1.101.927-1.682.317-.821.564-1.675.488-2.547-.155-.912-.397-1.665-1.071-2.41-.174-.172-.483-.502-.713-.63-1.232-.683-1.997-1.13-3.34-1.357-1-.152-1.945-.17-2.957-.126-1.005.04-2.019.107-2.964.428-.418.156-.578.202-.973.403a7.164 7.164 0 00-1.79 1.297c-.728.787-1.272 1.53-1.55 2.518-.081.295-.157.543-.211.842-.102.557-.101 1.12-.092 1.682.006.844.01 1.692.137 2.53.067.367.08.487.183.848.16.556.416 1.084.652 1.618.241.541.493 1.094.961 1.526l1.695.558z" id="path2840" opacity=".99" fill="#265984"/><path id="path5106" d="M5.86 28.505c-.023-.076-.299-.655-.394-.958-.268-.857-.357-1.722-.357-3.476 0-1.67.103-2.37.481-3.264.384-.906 1.44-2.155 2.341-2.77 1.164-.793 2.406-1.145 4.472-1.266 2.544-.15 3.91.074 5.628.92 1.816.896 2.631 2.019 2.757 3.796l-.22 1.12.649-.95c2.23-2.946 3.398-4.288 5.952-6.828l1.83-1.819-.678-.299c-1.85-.817-6.383-3.258-8.003-4.309-.9-.584-1.662-1.28-2.498-2.283-.373-.447-.96-1.157-.976-1.14-.017.016.408.841.616 1.397.57 1.517.747 2.546.747 4.338 0 1.021-.036 1.218-.227 1.218-.148 0-1.27-.548-1.619-.792-.224-.156-.41-.18-1.695-.212-1.766-.045-2.331.03-4.688.622-3.408.855-4.508 1.364-5.862 2.712-.522.52-.789.874-1.095 1.457-.556 1.056-.668 1.578-.726 3.394-.06 1.878.062 2.729.626 4.377.505 1.477.914 2.332 1.61 3.37.56.835 1.233 1.64 1.151 1.377l.179.268z" opacity=".99" fill="url(#linearGradient5194)" stroke="none" stroke-width=".086" stroke-opacity="1"/></g></g></svg>