<?xml version="1.0" encoding="UTF-8" standalone="no"?>
<!-- Created with Inkscape (http://www.inkscape.org/) -->

<svg
   xmlns:dc="http://purl.org/dc/elements/1.1/"
   xmlns:cc="http://creativecommons.org/ns#"
   xmlns:rdf="http://www.w3.org/1999/02/22-rdf-syntax-ns#"
   xmlns:svg="http://www.w3.org/2000/svg"
   xmlns="http://www.w3.org/2000/svg"
   xmlns:sodipodi="http://sodipodi.sourceforge.net/DTD/sodipodi-0.dtd"
   xmlns:inkscape="http://www.inkscape.org/namespaces/inkscape"
   width="999.99591"
   height="220.00298"
   id="svg2"
   version="1.1"
   inkscape:version="0.48.5 r10040"
   sodipodi:docname="about.svg"
   inkscape:export-filename="/home/yuzo/Downloads/devsv/about.png"
   inkscape:export-xdpi="14.858652"
   inkscape:export-ydpi="14.858652">
  <defs
     id="defs4">
    <filter
       color-interpolation-filters="sRGB"
       inkscape:collect="always"
       id="filter3761-3">
      <feGaussianBlur
         inkscape:collect="always"
         stdDeviation="0.76166602"
         id="feGaussianBlur3763-8" />
    </filter>
    <filter
       inkscape:collect="always"
       id="filter3796"
       x="-0.036573824"
       width="1.0731477"
       y="-0.24363013"
       height="1.4872602"
       color-interpolation-filters="sRGB">
      <feGaussianBlur
         inkscape:collect="always"
         stdDeviation="13.5091"
         id="feGaussianBlur3798" />
    </filter>
  </defs>
  <sodipodi:namedview
     id="base"
     pagecolor="#ffffff"
     bordercolor="#666666"
     borderopacity="1.0"
     inkscape:pageopacity="0.0"
     inkscape:pageshadow="2"
     inkscape:zoom="1.4"
     inkscape:cx="542.53174"
     inkscape:cy="68.448355"
     inkscape:document-units="px"
     inkscape:current-layer="layer1"
     showgrid="false"
     showguides="true"
     inkscape:guide-bbox="true"
     fit-margin-top="10"
     fit-margin-right="19.12"
     fit-margin-bottom="1.94"
     fit-margin-left="19.12"
     inkscape:window-width="1920"
     inkscape:window-height="1027"
     inkscape:window-x="0"
     inkscape:window-y="24"
     inkscape:window-maximized="1" />
  <metadata
     id="metadata7">
    <rdf:RDF>
      <cc:Work
         rdf:about="">
        <dc:format>image/svg+xml</dc:format>
        <dc:type
           rdf:resource="http://purl.org/dc/dcmitype/StillImage" />
        <dc:title />
      </cc:Work>
    </rdf:RDF>
  </metadata>
  <g
     inkscape:label="Layer 1"
     inkscape:groupmode="layer"
     id="layer1"
     transform="translate(-47.04533,-247.07251)">
    <g
       id="g3763"
       inkscape:export-filename="/home/yuzo/Downloads/about.png"
       inkscape:export-xdpi="15.57"
       inkscape:export-ydpi="15.57">
      <path
         inkscape:connector-curvature="0"
         id="text2985"
         d="m 962.6875,290.03125 c -8.28412,1.05751 -20.37942,0.92172 -23.8125,10.3125 -0.99307,5.32712 -4.51753,13.5249 2.1875,16.71875 7.98467,0.84191 14.18354,-7.11782 22.34375,-5.59375 5.65816,0.39461 10.29376,6.13189 7.75,11.625 -4.3987,11.60785 -18.90528,14.52564 -25.09375,25.03125 -4.73465,6.96146 -8.93226,15.75988 -7.53125,24.1875 4.01015,6.30024 13.62033,5.16639 19.28125,2.40625 4.90818,-4.70472 3.06238,-13.12379 9.22436,-17.06458 9.69444,-9.16811 23.46764,-15.93339 26.74439,-30.02917 4.93353,-15.871 -5.58875,-35.8528 -23.0625,-37.15625 -2.64747,-0.47138 -5.34734,-0.52987 -8.03125,-0.4375 z M 159.5,290.1875 c -31.06946,-0.64814 -57.39444,27.38175 -59.65625,57.5 -3.588724,21.32983 5.62205,46.6925 26.9375,55 4.89173,2.47053 10.80031,2.79254 15.78125,4 8.33031,14.23068 23.06532,27.50466 40.71875,25.28125 6.26173,0.40146 14.54762,-1.98125 15.0625,-9.40625 2.17124,-5.02409 2.98796,-14.27064 -4.46875,-14.875 -8.41729,2.58491 -19.21958,1.78349 -24.78125,-6.03125 22.57415,-9.26708 36.1952,-33.97698 37.10413,-57.81163 0.97312,-17.61479 -4.97111,-37.21394 -21.01038,-46.53212 -7.59175,-4.83892 -16.67156,-7.43732 -25.6875,-7.125 z m 403.09375,0.125 c -19.44657,0.39676 -38.08174,18.52572 -34.59375,38.65625 2.02162,16.07487 16.00852,26.4539 28.5,34.78125 5.53549,4.27393 7.58225,14.17549 0.625,17.9375 -9.72544,4.9207 -21.83337,1.17348 -30.75,-4.3125 -4.30008,-2.5118 -9.12946,0.16627 -9.83592,4.99266 -2.78947,6.52455 -3.1906,17.45107 5.66719,19.19976 18.58396,7.95842 44.0336,7.81337 57.51248,-9.28617 11.18826,-15.11777 6.42905,-38.52444 -9.3125,-48.59375 -7.09584,-5.8335 -19.11606,-11.32317 -17.875,-22.3125 2.87623,-9.50035 15.2952,-10.05164 23.25,-7.09375 4.92874,1.10446 10.51389,6.25677 15.125,3.28125 4.01979,-5.74163 6.69429,-14.79199 2.46875,-21.15625 -9.22473,-5.29615 -20.30726,-6.25297 -30.78125,-6.09375 z m -403.78125,22.5 c 13.81941,-1.09349 24.27858,13.02751 22.78701,26.12431 0.73868,18.96958 -9.84398,41.24111 -30.00576,44.71944 -11.56261,2.26335 -25.0247,-4.76966 -26.71875,-17 -4.42032,-19.36337 4.03627,-43.14931 22.78125,-51.46875 3.53092,-1.4926 7.32277,-2.27743 11.15625,-2.375 z m 294.625,6.0625 c -9.65559,-0.47502 -18.83076,6.05931 -25.1875,11.09375 -7.14576,-12.75794 -25.45496,-14.09012 -36.40625,-5.6875 -2.95374,3.53295 -3.25055,-2.89444 -6.53125,-3.25 -6.71594,-1.70568 -16.48141,-1.28638 -19.125,6.5625 -2.02639,21.77987 -8.92725,42.98627 -12.57135,64.65617 -1.79483,4.54173 -1.56714,10.69331 4.00885,12.12508 6.62547,1.62627 17.11539,1.5011 18.90625,-6.84375 3.70646,-16.19775 4.11839,-34.12516 14.4375,-47.90625 3.75503,-4.19548 9.57106,-10.51125 15.78125,-7.9375 2.97257,6.85405 -0.79072,14.65533 -2.09375,21.59375 -1.87324,12.42783 -6.44699,24.58741 -6.53125,37.34375 4.61456,6.06367 15.22374,6.00146 21.125,1.5 4.63195,-6.76281 4.12188,-16.13576 6.1875,-24.03125 2.50913,-13.92664 7.22938,-31.13761 21.84375,-36.84375 4.01738,-1.79502 6.43021,2.37763 5.71875,5.96875 -2.43712,15.87342 -7.13873,31.36433 -9.32918,47.40013 -1.07503,4.2381 -0.0908,9.08472 4.89168,9.72487 6.83682,2.32257 18.26666,0.67096 18.15443,-8.50744 3.81257,-19.28809 10.89946,-38.6892 9.70303,-58.60234 -2.20968,-10.4079 -12.15019,-18.9113 -22.98246,-18.35897 z m 311.90625,0 c -9.65559,-0.47502 -18.83076,6.05931 -25.1875,11.09375 -7.14576,-12.75794 -25.45496,-14.09012 -36.40625,-5.6875 -2.95374,3.53295 -3.25055,-2.89444 -6.53125,-3.25 -6.71594,-1.70568 -16.48141,-1.28638 -19.125,6.5625 -2.02639,21.77987 -8.92725,42.98627 -12.57135,64.65617 -1.79483,4.54173 -1.56714,10.69331 4.00885,12.12508 6.62547,1.62627 17.11539,1.5011 18.90625,-6.84375 3.70646,-16.19775 4.11839,-34.12516 14.4375,-47.90625 3.75503,-4.19548 9.57106,-10.51125 15.78125,-7.9375 2.97257,6.85405 -0.79072,14.65533 -2.09375,21.59375 -1.87324,12.42783 -6.44699,24.58741 -6.53125,37.34375 4.61456,6.06367 15.22374,6.00146 21.125,1.5 4.63195,-6.76281 4.12188,-16.13576 6.1875,-24.03125 2.53819,-13.99648 7.2681,-31.40391 22.15625,-36.9375 4.63717,-1.73538 6.08626,3.76743 5.34375,7.3125 -2.84706,16.1548 -7.64822,32.02063 -9.45805,48.4653 -1.75167,7.41845 7.90952,8.79628 13.3018,8.19095 5.06403,-0.39837 10.30975,-3.51918 9.93568,-9.28869 3.81257,-19.28809 10.89946,-38.6892 9.70303,-58.60234 -2.20968,-10.4079 -12.15019,-18.9113 -22.98246,-18.35897 z m 136.4375,0.1875 c -17.81,-1.29077 -35.22284,17.18652 -29.34375,35.0625 3.42248,11.36489 14.89621,16.92307 23.65625,23.375 2.47497,3.49718 -0.92178,7.64458 -4.875,7.125 -8.00833,1.54097 -14.88551,-4.77807 -22.5,-4.625 -6.18216,4.6783 -8.55458,15.81784 -2.84375,21.46875 16.28987,8.48054 40.14829,7.42982 51.28125,-8.78125 7.86788,-12.85549 1.84338,-31.07155 -11.5625,-37.46875 -3.82767,-2.55209 -11.77334,-5.3421 -9.8125,-11.25 4.832,-5.99994 13.54053,-2.52541 19.125,0.53125 5.05545,2.03222 10.09658,-2.03641 10.09375,-7.21875 2.0355,-5.51643 2.16809,-14.47607 -5.21875,-15.75 -5.85984,-1.55676 -11.89461,-2.8324 -18,-2.46875 z m -573.875,0 c -25.0009,0.85895 -43.71446,25.51139 -43.65625,49.4375 -2.03571,16.93902 9.37576,36.3032 27.53125,37.46875 11.45937,1.6693 25.1069,0.0131 33.21875,-8.90625 1.91129,-5.91169 6.12099,-15.85095 -2.09375,-18.8125 -6.71008,-0.5947 -11.48495,5.88562 -18.09375,6.21875 -6.84821,1.7308 -16.49677,-1.66308 -16.625,-9.6875 15.25811,-0.20682 32.75934,-2.04177 43.75,-13.9375 12.24419,-12.68137 5.18644,-37.18579 -12.375,-40.46875 -3.77585,-1.11346 -7.72795,-1.44391 -11.65625,-1.3125 z m 305.1875,0 c -23.69702,-0.0775 -41.89291,22.44779 -43.65625,44.78125 -2.66765,15.70616 3.47931,35.65219 20.25,40.6875 22.19288,8.05173 48.21981,-7.56926 54.01527,-29.97601 6.14228,-16.66974 5.39172,-39.44284 -10.73402,-50.27399 -5.8091,-3.80695 -12.93143,-5.54282 -19.875,-5.21875 z m 200.53125,0 c -23.69702,-0.0775 -41.89291,22.44779 -43.65625,44.78125 -2.66765,15.70616 3.47931,35.65219 20.25,40.6875 22.19288,8.05173 48.21981,-7.56926 54.01527,-29.97601 6.14228,-16.66974 5.39172,-39.44284 -10.73402,-50.27399 -5.8091,-3.80695 -12.93143,-5.54282 -19.875,-5.21875 z m -606.28125,1.375 c -5.13684,0.37689 -12.03105,1.41819 -11.53736,8.19314 -4.08067,19.15422 -10.29237,38.2814 -10.40014,57.96311 2.02015,14.20195 17.95858,23.74062 31.5,19.0625 4.45508,-0.98324 8.94285,-3.98743 12.375,-5.875 1.36633,4.79345 6.61983,5.80214 10.84375,5.375 6.30254,1.02701 14.45696,-3.87387 12.6875,-11.03125 3.58157,-23.06919 10.60179,-45.36225 13.46875,-68.46875 -2.88541,-6.49479 -11.99566,-5.74712 -17.78125,-4.375 -7.92172,2.40943 -6.38708,12.03781 -8.36872,18.29173 -2.6713,15.70458 -5.44042,34.57233 -20.60003,43.30202 -3.29695,2.10632 -10.41228,3.24362 -10.28125,-2.53125 -0.12403,-8.90532 3.59917,-17.43843 4.69854,-26.16074 1.94475,-9.85916 5.6454,-20.05049 4.5699,-30.09097 -2.3512,-3.27368 -7.39606,-3.81921 -11.17469,-3.65454 z m 102.8125,20.3125 c 4.25471,-0.18904 5.91119,6.20959 1.625,7.78125 -5.75469,4.26648 -13.20447,3.87766 -20,4.65625 3.499,-6.88602 10.1349,-12.81549 18.375,-12.4375 z M 634.25,340.8125 c 8.79348,0.72774 10.42301,11.79023 8.78941,18.7744 -1.09109,11.34809 -8.19361,25.134 -21.13316,25.25685 -8.38212,-0.83245 -10.18903,-10.79926 -8.8125,-17.59375 0.93702,-11.69421 7.76037,-26.06806 21.15625,-26.4375 z m 200.53125,0 c 8.79348,0.72774 10.42301,11.79023 8.78941,18.7744 -1.09109,11.34809 -8.19361,25.134 -21.13316,25.25685 -8.38212,-0.83245 -10.18903,-10.79926 -8.8125,-17.59375 0.93702,-11.69421 7.76037,-26.06806 21.15625,-26.4375 z m 109.6875,37.71875 c -13.03149,-0.37499 -17.75045,20.412 -5.90625,25.78125 10.76997,7.34399 26.21335,-7.75552 18.8125,-18.59375 -2.42308,-4.6851 -7.78289,-7.45854 -12.90625,-7.1875 z"
         style="font-size:144px;font-style:italic;font-variant:normal;font-weight:bold;font-stretch:normal;line-height:125%;letter-spacing:0px;word-spacing:0px;opacity:0.97000002;fill:#008080;fill-opacity:1;stroke:#008080;stroke-width:1;stroke-linecap:round;stroke-linejoin:round;stroke-miterlimit:4;stroke-opacity:1;stroke-dasharray:none;filter:url(#filter3796);font-family:Segoe UI;-inkscape-font-specification:Segoe UI Bold Italic" />
      <path
         inkscape:connector-curvature="0"
         id="text2985-8"
         d="m 961.96875,293.25 c -6.46049,0.8087 -14.10591,1.19452 -19,5.75 0.14109,3.87402 -5.34556,15.77086 1.88723,13.24697 8.11766,-5.03703 21.12746,-8.92669 28.58152,-0.77822 6.01861,8.49424 -0.57259,19.42984 -8.21875,24.34375 -9.39914,6.0135 -18.72208,13.75872 -21.375,25.15625 -0.73496,3.58534 -4.59572,11.4624 1.96875,10.6875 4.20968,-0.20561 11.41446,1.73562 11.25,-4.53125 1.7887,-11.59948 12.52977,-17.59021 20.875,-24.21875 11.95768,-8.78398 17.47079,-26.95832 8.53125,-39.71875 -5.41667,-7.78442 -15.41008,-10.68939 -24.5,-9.9375 z m -805.03125,0.28125 c -28.24034,0.70419 -50.75869,26.43442 -52.9723,53.6792 -2.90992,18.4342 3.16914,40.11773 20.75355,49.16455 6.04756,3.44461 13.01404,5.01689 19.9375,5.25 7.44363,12.03682 17.96795,25.27287 33.4375,25.5625 5.1801,-0.20422 11.75676,0.6421 15.6875,-2.9375 -0.10533,-3.95572 5.89376,-14.44797 -1.3125,-13.3125 -9.55573,3.28562 -20.80911,0.4684 -26.56622,-8.09013 -5.10088,-3.87813 -0.49699,-4.67471 3.37816,-6.27131 26.6771,-12.65418 38.25056,-46.4998 30.81306,-74.04481 -5.14919,-18.87934 -23.90594,-30.78483 -43.15625,-29 z m 408.25,-0.0312 c -15.67522,-0.32367 -32.19833,10.88858 -33.15625,27.40625 -1.98094,14.75777 9.0626,26.98847 20.73262,34.23145 7.24644,4.78899 15.55666,12.30765 12.26738,21.8623 -3.16279,10.69798 -16.87216,11.16316 -25.84375,9.125 -6.1861,-0.91103 -11.53344,-4.66217 -17.09375,-6.96875 -2.64236,3.98066 -4.10615,11.43476 -2.5,15.96875 15.80782,7.93713 37.08853,10.2303 52,-0.84375 13.33702,-10.68285 13.98064,-33.13879 0.75,-44.21875 -7.65285,-8.52223 -21.8378,-12.95871 -23.78125,-25.625 -1.69145,-10.38704 9.33815,-17.53769 18.625,-16.34375 7.44406,-0.11079 14.31383,3.08191 20.78125,6.15625 2.72519,-3.87222 4.73434,-11.67708 2.7419,-16.05144 -8.09991,-3.10318 -16.79991,-5.00837 -25.52315,-4.69856 z M 158.21875,308.0938 c 12.36009,-1.1092 24.01707,8.08876 26.3125,20 3.81345,18.08143 -1.67408,38.63685 -15.6875,51.15625 -12.68211,11.08276 -36.41193,11.23933 -45.0625,-4.90625 -7.10885,-14.31329 -4.23014,-32.13806 3.09375,-45.84375 6.19662,-11.45484 18.02429,-20.20442 31.34375,-20.40625 z m 169.8125,14.1562 c -23.01685,0.80829 -39.48852,23.60066 -39.72747,45.4367 -1.11953,13.18416 4.91025,28.3595 18.57122,32.34455 11.36405,3.33395 24.87816,1.93354 34.56011,-4.9314 0.3211,-3.92605 5.70965,-13.81842 -0.46636,-14.0686 -9.40688,6.02869 -23.78397,10.87501 -33.03125,2.15625 -3.09107,-3.57375 -3.98884,-8.27737 -3.875,-12.90625 15.34824,-0.61113 33.06363,-0.98143 44.71875,-12.4375 9.11009,-9.84854 6.32277,-28.22276 -6.78125,-33.1875 -4.35552,-1.98236 -9.21741,-2.57459 -13.96875,-2.40625 z m 78.90625,0 c -9.05023,0.39629 -16.66299,6.44669 -22.15625,13.1875 0.33434,-4.09833 4.01732,-13.08136 -3.59375,-11.46875 -6.02633,-1.04101 -12.38476,-0.0546 -11.08536,7.63299 -3.70674,22.4341 -9.9794,44.59897 -13.59603,66.9039 3.47024,2.53676 11.80623,2.40328 15.35956,-0.11261 3.75712,-14.24756 4.89215,-29.35496 10.25933,-42.98678 4.88054,-8.85561 12.51281,-19.56861 23.65625,-19.25 7.6574,1.19844 6.68155,11.04172 5.1875,16.59375 -2.92463,15.16873 -7.04171,30.54919 -9.23971,45.78592 3.52014,2.47334 11.79598,2.38684 15.35538,-0.14289 3.7669,-14.28869 4.84425,-29.44191 10.32183,-43.11178 4.82485,-8.78367 12.44248,-19.50994 23.5,-19.125 7.67286,1.10646 6.55236,11.11661 5.15625,16.625 -2.92178,15.15352 -6.96476,30.52899 -9.15014,45.75564 3.47253,2.46141 11.69165,2.39726 15.24389,-0.13064 3.44862,-18.507 9.16658,-36.75374 10.84375,-55.5 C 473.57351,332.31932 465.40791,321.61913 454.1875,322.25 443.06001,321.5044 433.26308,329.27306 427,337.40625 425.56729,327.67093 416.58896,321.31398 406.9375,322.25 z M 632,322.28125 c -20.1214,0.63965 -35.34025,18.99012 -37.9375,38 -2.79412,13.71897 -0.38521,31.26567 13.40625,38.1875 17.64511,8.73844 40.45869,-0.4492 48.96875,-17.78125 7.16477,-14.07863 10.36148,-32.88143 1.4375,-47 -5.60478,-8.44542 -16.04973,-12.15892 -25.875,-11.40625 z m 86.84375,-0.0312 c -9.05023,0.39629 -16.66299,6.44669 -22.15625,13.1875 0.33434,-4.09833 4.01732,-13.08136 -3.59375,-11.46875 -6.02633,-1.04101 -12.38476,-0.0546 -11.08536,7.63299 -3.70674,22.4341 -9.9794,44.59897 -13.59603,66.9039 3.47024,2.53676 11.80623,2.40328 15.35956,-0.11261 3.75712,-14.24756 4.89215,-29.35496 10.25933,-42.98678 4.8805,-8.85562 12.51292,-19.56865 23.65625,-19.25 7.6574,1.19844 6.68155,11.04172 5.1875,16.59375 -2.92463,15.16873 -7.04171,30.54919 -9.23971,45.78592 3.52014,2.47334 11.79598,2.38684 15.35538,-0.14289 3.7669,-14.28869 4.84425,-29.44191 10.32183,-43.11178 4.8248,-8.78368 12.4426,-19.50998 23.5,-19.125 7.67743,1.10843 6.54846,11.11548 5.15625,16.625 -2.92178,15.15352 -6.96476,30.52899 -9.15014,45.75564 3.47253,2.46141 11.69165,2.39726 15.24389,-0.13064 3.44862,-18.507 9.16658,-36.75374 10.84375,-55.5 0.57351,-10.58693 -7.59209,-21.28712 -18.8125,-20.65625 -11.12749,-0.7456 -20.92442,7.02306 -27.1875,15.15625 -1.43271,-9.73532 -10.41104,-16.09227 -20.0625,-15.15625 z m 113.6875,0.0312 c -20.1214,0.63965 -35.34025,18.99012 -37.9375,38 -2.79412,13.71897 -0.38521,31.26567 13.40625,38.1875 17.64511,8.73844 40.45869,-0.4492 48.96875,-17.78125 7.16477,-14.07863 10.36148,-32.88143 1.4375,-47 -5.60478,-8.44542 -16.04973,-12.15892 -25.875,-11.40625 z M 901.75,322.25 c -12.8208,-0.33169 -26.01441,9.35746 -26.15625,22.90625 -1.08938,12.12073 9.75637,20.10617 19.1875,25.375 5.49607,2.40654 8.6694,10.12333 3.8125,14.6875 -8.39394,5.5904 -19.59835,1.53786 -27.76714,-2.63616 -3.59036,2.1339 -4.86989,10.60553 -3.42036,14.54241 13.05339,6.36677 30.70419,6.98913 42.40625,-2.5625 10.19887,-8.87413 8.87,-26.80622 -2.59375,-34.09375 -5.61038,-5.06861 -16.98467,-7.5407 -15.71875,-16.9375 1.63994,-8.41365 12.5412,-8.49731 19.03125,-6.28125 3.56044,0.65173 9.42791,6.44479 10.06776,-0.13788 0.97265,-4.60535 4.58408,-12.06645 -2.81776,-12.67462 -5.16187,-1.66462 -10.60939,-2.39913 -16.03125,-2.1875 z m -681.1875,2.40625 c -4.12603,18.22245 -8.65009,36.58318 -11.34375,55.0625 -0.90149,10.73038 6.92641,21.69676 18.1875,21.9375 10.62855,1.05124 20.46437,-5.34877 26.875,-13.3125 -0.79945,4.76971 -3.70229,13.80352 4.59375,11.625 6.07366,1.4271 10.9938,-0.81789 10.11005,-7.62904 3.69648,-22.43815 9.9523,-44.61937 13.50466,-66.93813 -3.49999,-2.46521 -11.75392,-2.39953 -15.29288,0.14289 -3.62587,13.88572 -4.84021,28.64976 -9.91558,42.01803 -4.89846,9.786 -13.81776,21.06087 -25.90625,20.15625 -7.48985,-1.26626 -6.71794,-11.15409 -5.1875,-16.5625 2.94363,-15.15615 7.06247,-30.52845 9.27096,-45.75467 -3.0233,-2.86388 -10.83859,-1.39538 -14.89596,-0.74533 z M 328.5,336.0625 c 6.02475,-0.92811 12.26573,4.73621 9.21875,10.84375 -4.25548,8.00528 -15.22174,8.34443 -23.15625,9.375 -2.44668,-0.56674 -10.22727,2.51704 -7.95693,-1.82095 3.29217,-9.22931 11.39424,-18.24797 21.89443,-18.3978 z m 304.625,0 c 9.80971,-0.92356 15.33685,9.59081 14.26239,18.12482 -0.14211,13.51303 -6.6116,30.40247 -21.23114,33.43768 -7.99997,2.15744 -16.2502,-3.87915 -16.875,-12.09375 -1.97907,-15.37729 5.45889,-38.42988 23.84375,-39.46875 z m 200.53125,0 c 9.80971,-0.92356 15.33685,9.59081 14.26239,18.12482 -0.14211,13.51303 -6.6116,30.40247 -21.23114,33.43768 -7.99997,2.15744 -16.2502,-3.87915 -16.875,-12.09375 -1.97907,-15.37729 5.45889,-38.42988 23.84375,-39.46875 z m 110.75,45.6875 c -8.84396,0.37361 -12.08378,13.46514 -4.40625,17.90625 7.66611,5.63464 18.94069,-4.1479 14.125,-12.5 -1.77785,-3.53683 -5.76245,-5.81443 -9.71875,-5.40625 z"
         style="font-size:144px;font-style:italic;font-variant:normal;font-weight:bold;font-stretch:normal;line-height:125%;letter-spacing:0px;word-spacing:0px;fill:#000000;fill-opacity:1;stroke:#ffffff;stroke-width:4;stroke-linecap:round;stroke-linejoin:round;stroke-miterlimit:4;stroke-opacity:1;stroke-dasharray:none;filter:url(#filter3761-3);font-family:Segoe UI;-inkscape-font-specification:Segoe UI Bold Italic" />
    </g>
  </g>
</svg>
