<svg xmlns="http://www.w3.org/2000/svg" width="100.004" height="21.995"><defs><filter color-interpolation-filters="sRGB" id="b"><feGaussianBlur stdDeviation=".762"/></filter><filter id="a" x="-.037" width="1.073" y="-.244" height="1.487" color-interpolation-filters="sRGB"><feGaussianBlur stdDeviation="13.509"/></filter></defs><g font-size="144" font-style="italic" font-weight="700" letter-spacing="0" word-spacing="0" stroke-linecap="round" stroke-linejoin="round" font-family="Segoe UI"><path d="M962.688 290.031c-8.285 1.058-20.38.922-23.813 10.313-.993 5.327-4.518 13.525 2.188 16.719 7.984.841 14.183-7.118 22.343-5.594 5.658.394 10.294 6.132 7.75 11.625-4.398 11.608-18.905 14.525-25.093 25.031-4.735 6.961-8.933 15.76-7.532 24.188 4.01 6.3 13.62 5.166 19.282 2.406 4.908-4.705 3.062-13.124 9.224-17.065 9.694-9.168 23.468-15.933 26.744-30.029 4.934-15.871-5.588-35.853-23.062-37.156-2.648-.472-5.348-.53-8.032-.438zm-803.188.156c-31.07-.648-57.394 27.382-59.656 57.5-3.589 21.33 5.622 46.693 26.937 55 4.892 2.471 10.8 2.793 15.781 4 8.33 14.231 23.066 27.505 40.72 25.282 6.261.401 14.547-1.981 15.062-9.406 2.171-5.025 2.988-14.271-4.469-14.875-8.417 2.584-19.22 1.783-24.781-6.032 22.574-9.267 36.195-33.977 37.104-57.811.973-17.615-4.971-37.214-21.01-46.533-7.592-4.838-16.672-7.437-25.688-7.125zm403.094.125c-19.447.397-38.082 18.526-34.594 38.657 2.022 16.075 16.009 26.454 28.5 34.781 5.535 4.274 7.582 14.175.625 17.938-9.725 4.92-21.833 1.173-30.75-4.313-4.3-2.512-9.13.166-9.836 4.993-2.79 6.524-3.19 17.45 5.667 19.2 18.584 7.958 44.034 7.813 57.513-9.287 11.188-15.118 6.429-38.524-9.313-48.594-7.096-5.833-19.116-11.323-17.875-22.312 2.876-9.5 15.295-10.052 23.25-7.094 4.929 1.105 10.514 6.257 15.125 3.281 4.02-5.741 6.695-14.791 2.469-21.156-9.225-5.296-20.307-6.253-30.781-6.094zm-403.782 22.5c13.82-1.093 24.28 13.028 22.788 26.125.738 18.97-9.844 41.24-30.006 44.72-11.563 2.263-25.025-4.77-26.719-17-4.42-19.364 4.036-43.15 22.781-51.47 3.531-1.492 7.323-2.277 11.156-2.375zm294.625 6.063c-9.655-.475-18.83 6.06-25.187 11.094-7.146-12.758-25.455-14.09-36.406-5.688-2.954 3.533-3.25-2.894-6.531-3.25-6.716-1.705-16.482-1.286-19.125 6.563-2.027 21.78-8.928 42.986-12.572 64.656-1.795 4.542-1.567 10.693 4.009 12.125 6.625 1.626 17.115 1.501 18.906-6.844 3.707-16.198 4.119-34.125 14.438-47.906 3.755-4.195 9.57-10.511 15.781-7.938 2.973 6.855-.79 14.656-2.094 21.594-1.873 12.428-6.447 24.588-6.531 37.344 4.615 6.064 15.224 6.001 21.125 1.5 4.632-6.763 4.122-16.136 6.188-24.031 2.509-13.927 7.229-31.138 21.843-36.844 4.018-1.795 6.43 2.378 5.719 5.969-2.437 15.873-7.139 31.364-9.33 47.4-1.074 4.238-.09 9.085 4.892 9.725 6.837 2.322 18.267.67 18.155-8.508 3.813-19.288 10.9-38.689 9.703-58.602-2.21-10.408-12.15-18.911-22.983-18.359zm311.907 0c-9.656-.475-18.831 6.06-25.188 11.094-7.146-12.758-25.455-14.09-36.406-5.688-2.954 3.533-3.25-2.894-6.531-3.25-6.716-1.705-16.482-1.286-19.125 6.563-2.027 21.78-8.928 42.986-12.572 64.656-1.794 4.542-1.567 10.693 4.01 12.125 6.625 1.626 17.115 1.501 18.905-6.844 3.707-16.198 4.119-34.125 14.438-47.906 3.755-4.195 9.571-10.511 15.781-7.938 2.973 6.855-.79 14.656-2.093 21.594-1.874 12.428-6.447 24.588-6.532 37.344 4.615 6.064 15.224 6.001 21.125 1.5 4.632-6.763 4.122-16.136 6.188-24.031 2.538-13.997 7.268-31.404 22.156-36.938 4.637-1.735 6.086 3.768 5.344 7.313-2.847 16.155-7.648 32.02-9.458 48.465-1.752 7.418 7.91 8.796 13.302 8.191 5.064-.398 10.31-3.52 9.935-9.289 3.813-19.288 10.9-38.689 9.703-58.602-2.21-10.408-12.15-18.911-22.982-18.359zm136.437.188c-17.81-1.291-35.223 17.186-29.343 35.062 3.422 11.365 14.896 16.923 23.656 23.375 2.475 3.497-.922 7.645-4.875 7.125-8.009 1.541-14.886-4.778-22.5-4.625-6.182 4.678-8.555 15.818-2.844 21.469 16.29 8.48 40.148 7.43 51.281-8.781 7.868-12.856 1.844-31.072-11.562-37.47-3.828-2.551-11.774-5.341-9.813-11.25 4.832-6 13.54-2.525 19.125.532 5.056 2.032 10.097-2.036 10.094-7.219 2.035-5.516 2.168-14.476-5.219-15.75-5.86-1.557-11.894-2.832-18-2.469zm-573.875 0c-25 .858-43.714 25.51-43.656 49.437-2.036 16.939 9.376 36.303 27.531 37.469 11.46 1.67 25.107.013 33.219-8.906 1.911-5.912 6.121-15.851-2.094-18.813-6.71-.595-11.485 5.886-18.094 6.219-6.848 1.73-16.496-1.663-16.625-9.688 15.259-.207 32.76-2.042 43.75-13.937 12.245-12.682 5.187-37.186-12.375-40.469-3.775-1.113-7.727-1.444-11.656-1.313zm305.188 0c-23.697-.078-41.893 22.447-43.657 44.78-2.667 15.707 3.48 35.653 20.25 40.688 22.193 8.052 48.22-7.569 54.016-29.976 6.142-16.67 5.391-39.443-10.734-50.274-5.81-3.807-12.932-5.543-19.875-5.219zm200.531 0c-23.697-.078-41.893 22.447-43.656 44.78-2.668 15.707 3.48 35.653 20.25 40.688 22.193 8.052 48.22-7.569 54.015-29.976 6.142-16.67 5.392-39.443-10.734-50.274-5.81-3.807-12.931-5.543-19.875-5.219zm-606.281 1.375c-5.137.376-12.031 1.418-11.538 8.193-4.08 19.154-10.292 38.281-10.4 57.963 2.02 14.202 17.959 23.74 31.5 19.062 4.455-.983 8.943-3.987 12.375-5.875 1.367 4.794 6.62 5.802 10.844 5.375 6.303 1.027 14.457-3.874 12.688-11.031 3.581-23.07 10.601-45.362 13.468-68.469-2.885-6.495-11.995-5.747-17.781-4.375-7.922 2.41-6.387 12.038-8.369 18.292-2.671 15.705-5.44 34.572-20.6 43.302-3.297 2.106-10.412 3.244-10.281-2.531-.124-8.906 3.6-17.439 4.699-26.161 1.944-9.86 5.645-20.05 4.57-30.091-2.352-3.274-7.397-3.82-11.175-3.654zm102.812 20.312c4.255-.189 5.911 6.21 1.625 7.781-5.754 4.267-13.204 3.878-20 4.656 3.5-6.886 10.135-12.815 18.375-12.437zm304.094.063c8.793.727 10.423 11.79 8.79 18.774-1.092 11.348-8.194 25.134-21.134 25.257-8.382-.833-10.189-10.8-8.812-17.594.937-11.694 7.76-26.068 21.156-26.438zm200.531 0c8.794.727 10.423 11.79 8.79 18.774-1.091 11.348-8.194 25.134-21.134 25.257-8.382-.833-10.189-10.8-8.812-17.594.937-11.694 7.76-26.068 21.156-26.438zM944.47 378.53c-13.032-.375-17.75 20.412-5.907 25.781 10.77 7.344 26.214-7.755 18.813-18.593-2.423-4.685-7.783-7.459-12.906-7.188z" style="line-height:125%;-inkscape-font-specification:Segoe UI Bold Italic" opacity=".97" fill="teal" stroke="teal" filter="url(#a)" transform="matrix(.1 0 0 .1 -4.697 -24.707)"/><path d="M961.969 293.25c-6.46.809-14.106 1.195-19 5.75.14 3.874-5.346 15.77 1.887 13.247 8.118-5.037 21.127-8.927 28.582-.778 6.018 8.494-.573 19.43-8.22 24.344-9.398 6.013-18.721 13.758-21.374 25.156-.735 3.585-4.596 11.462 1.968 10.687 4.21-.205 11.415 1.736 11.25-4.531 1.79-11.6 12.53-17.59 20.875-24.219 11.958-8.784 17.471-26.958 8.532-39.719-5.417-7.784-15.41-10.689-24.5-9.937zm-805.032.281c-28.24.704-50.758 26.435-52.972 53.68-2.91 18.434 3.17 40.117 20.754 49.164 6.047 3.445 13.014 5.017 19.937 5.25 7.444 12.037 17.968 25.273 33.438 25.563 5.18-.205 11.757.642 15.687-2.938-.105-3.956 5.894-14.448-1.312-13.313-9.556 3.286-20.81.469-26.566-8.09-5.101-3.878-.497-4.674 3.378-6.27 26.677-12.655 38.25-46.5 30.813-74.046-5.15-18.88-23.906-30.785-43.156-29zm408.25-.031c-15.675-.324-32.198 10.889-33.156 27.406-1.98 14.758 9.063 26.989 20.733 34.232 7.246 4.789 15.557 12.307 12.267 21.862-3.163 10.698-16.872 11.163-25.843 9.125-6.187-.911-11.534-4.662-17.094-6.969-2.643 3.981-4.106 11.435-2.5 15.969 15.808 7.937 37.088 10.23 52-.844 13.337-10.683 13.98-33.138.75-44.218-7.653-8.523-21.838-12.96-23.782-25.625-1.691-10.387 9.339-17.538 18.625-16.344 7.445-.111 14.314 3.082 20.782 6.156 2.725-3.872 4.734-11.677 2.742-16.051-8.1-3.104-16.8-5.009-25.524-4.699zM158.22 308.094c12.36-1.11 24.017 8.089 26.312 20 3.814 18.081-1.674 38.637-15.687 51.156-12.682 11.083-36.412 11.24-45.063-4.906-7.109-14.313-4.23-32.138 3.094-45.844 6.197-11.455 18.024-20.204 31.344-20.406zm169.81 14.156c-23.017.808-39.488 23.6-39.727 45.437-1.12 13.184 4.91 28.36 18.571 32.344 11.364 3.334 24.878 1.934 34.56-4.931.321-3.926 5.71-13.819-.466-14.069-9.407 6.029-23.784 10.875-33.031 2.156-3.092-3.573-3.99-8.277-3.875-12.906 15.348-.61 33.063-.981 44.718-12.437 9.11-9.849 6.323-28.223-6.781-33.188-4.356-1.982-9.217-2.574-13.969-2.406zm78.906 0c-9.05.396-16.662 6.447-22.156 13.188.335-4.099 4.018-13.082-3.594-11.47-6.026-1.04-12.384-.054-11.085 7.634-3.707 22.434-9.98 44.599-13.596 66.904 3.47 2.536 11.806 2.403 15.36-.113 3.757-14.248 4.892-29.355 10.259-42.987 4.88-8.855 12.513-19.568 23.656-19.25 7.658 1.199 6.682 11.042 5.188 16.594-2.925 15.169-7.042 30.55-9.24 45.786 3.52 2.473 11.796 2.387 15.355-.143 3.767-14.289 4.845-29.442 10.322-43.112 4.825-8.783 12.443-19.51 23.5-19.125 7.673 1.107 6.553 11.117 5.156 16.625-2.921 15.154-6.964 30.53-9.15 45.756 3.473 2.461 11.692 2.397 15.244-.13 3.449-18.508 9.167-36.754 10.844-55.5.574-10.588-7.592-21.288-18.813-20.657-11.127-.746-20.924 7.023-27.187 15.156-1.433-9.735-10.411-16.092-20.063-15.156zm225.063.031c-20.121.64-35.34 18.99-37.938 38-2.794 13.72-.385 31.266 13.407 38.188 17.645 8.738 40.458-.45 48.968-17.781 7.165-14.08 10.362-32.882 1.438-47-5.605-8.446-16.05-12.16-25.875-11.407zm86.844-.031c-9.05.396-16.663 6.447-22.157 13.188.335-4.099 4.018-13.082-3.593-11.47-6.027-1.04-12.385-.054-11.086 7.634-3.706 22.434-9.979 44.599-13.596 66.904 3.47 2.536 11.807 2.403 15.36-.113 3.757-14.247 4.892-29.355 10.26-42.987 4.88-8.855 12.512-19.568 23.655-19.25 7.658 1.199 6.682 11.042 5.188 16.594-2.925 15.169-7.042 30.55-9.24 45.786 3.52 2.473 11.796 2.387 15.356-.143 3.767-14.289 4.844-29.442 10.321-43.112 4.825-8.783 12.443-19.51 23.5-19.125 7.678 1.109 6.549 11.116 5.157 16.625-2.922 15.154-6.965 30.53-9.15 45.756 3.472 2.461 11.691 2.397 15.243-.13 3.45-18.508 9.167-36.754 10.844-55.5.574-10.588-7.592-21.288-18.812-20.657-11.128-.746-20.925 7.023-27.188 15.156-1.432-9.735-10.41-16.092-20.062-15.156zm113.687.031c-20.121.64-35.34 18.99-37.937 38-2.794 13.72-.385 31.266 13.406 38.188 17.645 8.738 40.459-.45 48.969-17.781 7.165-14.08 10.361-32.882 1.437-47-5.605-8.446-16.05-12.16-25.875-11.407zm69.219-.031c-12.82-.332-26.014 9.357-26.156 22.906-1.09 12.121 9.756 20.106 19.187 25.375 5.496 2.407 8.67 10.124 3.813 14.688-8.394 5.59-19.599 1.538-27.767-2.636-3.59 2.133-4.87 10.605-3.42 14.542 13.053 6.367 30.703 6.99 42.405-2.563 10.2-8.874 8.87-26.806-2.593-34.093-5.61-5.069-16.985-7.54-15.719-16.938 1.64-8.413 12.541-8.497 19.031-6.281 3.56.652 9.428 6.445 10.068-.138.973-4.605 4.584-12.066-2.818-12.675a46.424 46.424 0 0 0-16.031-2.187zm-681.188 2.406c-4.126 18.223-8.65 36.583-11.343 55.063-.902 10.73 6.926 21.697 18.187 21.937 10.629 1.051 20.465-5.349 26.875-13.312-.8 4.77-3.702 13.803 4.594 11.625 6.074 1.427 10.994-.818 10.11-7.63 3.697-22.437 9.952-44.619 13.505-66.937-3.5-2.466-11.754-2.4-15.293.142-3.626 13.886-4.84 28.65-9.916 42.019-4.898 9.786-13.818 21.06-25.906 20.156-7.49-1.267-6.718-11.154-5.188-16.563 2.944-15.156 7.063-30.528 9.271-45.754-3.023-2.864-10.838-1.396-14.895-.746zM328.5 336.062c6.025-.928 12.266 4.737 9.219 10.844-4.256 8.006-15.222 8.345-23.156 9.375-2.447-.566-10.228 2.517-7.957-1.82 3.292-9.23 11.394-18.249 21.894-18.398zm304.625 0c9.81-.923 15.337 9.591 14.262 18.125-.142 13.513-6.611 30.403-21.23 33.438-8 2.157-16.251-3.88-16.876-12.094-1.979-15.377 5.46-38.43 23.844-39.469zm200.531 0c9.81-.923 15.337 9.591 14.263 18.125-.142 13.513-6.612 30.403-21.232 33.438-8 2.157-16.25-3.88-16.875-12.094-1.979-15.377 5.46-38.43 23.844-39.469zm110.75 45.688c-8.844.374-12.084 13.465-4.406 17.906 7.666 5.635 18.94-4.148 14.125-12.5-1.778-3.537-5.762-5.814-9.719-5.406z" style="line-height:125%;-inkscape-font-specification:Segoe UI Bold Italic" stroke="#fff" stroke-width="4" filter="url(#b)" transform="matrix(.1 0 0 .1 -4.697 -24.707)"/></g></svg>