<?xml version="1.0" encoding="UTF-8" standalone="no"?>
<!-- Created with Inkscape (http://www.inkscape.org/) -->

<svg
   xmlns:dc="http://purl.org/dc/elements/1.1/"
   xmlns:cc="http://creativecommons.org/ns#"
   xmlns:rdf="http://www.w3.org/1999/02/22-rdf-syntax-ns#"
   xmlns:svg="http://www.w3.org/2000/svg"
   xmlns="http://www.w3.org/2000/svg"
   xmlns:sodipodi="http://sodipodi.sourceforge.net/DTD/sodipodi-0.dtd"
   xmlns:inkscape="http://www.inkscape.org/namespaces/inkscape"
   width="699.99628"
   height="219.99559"
   id="svg2"
   version="1.1"
   inkscape:version="0.48.5 r10040"
   sodipodi:docname="toc.svg"
   inkscape:export-filename="/home/yuzo/Downloads/devsv/toc.png"
   inkscape:export-xdpi="15.501126"
   inkscape:export-ydpi="15.501126">
  <defs
     id="defs4">
    <filter
       color-interpolation-filters="sRGB"
       inkscape:collect="always"
       id="filter3761-8">
      <feGaussianBlur
         inkscape:collect="always"
         stdDeviation="0.52483594"
         id="feGaussianBlur3763-8" />
    </filter>
    <filter
       inkscape:collect="always"
       id="filter3796"
       x="-0.037955478"
       width="1.075911"
       y="-0.19608299"
       height="1.392166"
       color-interpolation-filters="sRGB">
      <feGaussianBlur
         inkscape:collect="always"
         stdDeviation="9.3516016"
         id="feGaussianBlur3798" />
    </filter>
    <filter
       inkscape:collect="always"
       id="filter3765"
       x="-0.038493741"
       width="1.0769875"
       y="-0.18287244"
       height="1.3657449"
       color-interpolation-filters="sRGB">
      <feGaussianBlur
         inkscape:collect="always"
         stdDeviation="9.6821868"
         id="feGaussianBlur3767" />
    </filter>
    <filter
       inkscape:collect="always"
       id="filter3775"
       x="-0.038324341"
       width="1.0766487"
       y="-0.18679497"
       height="1.3735899"
       color-interpolation-filters="sRGB">
      <feGaussianBlur
         inkscape:collect="always"
         stdDeviation="9.5768307"
         id="feGaussianBlur3777" />
    </filter>
  </defs>
  <sodipodi:namedview
     id="base"
     pagecolor="#ffffff"
     bordercolor="#666666"
     borderopacity="1.0"
     inkscape:pageopacity="0.0"
     inkscape:pageshadow="2"
     inkscape:zoom="1.4"
     inkscape:cx="412.01589"
     inkscape:cy="38.077339"
     inkscape:document-units="px"
     inkscape:current-layer="layer1"
     showgrid="false"
     fit-margin-top="17"
     fit-margin-right="26.27"
     fit-margin-left="26.26"
     fit-margin-bottom="32.78"
     inkscape:window-width="1920"
     inkscape:window-height="1027"
     inkscape:window-x="0"
     inkscape:window-y="24"
     inkscape:window-maximized="1" />
  <metadata
     id="metadata7">
    <rdf:RDF>
      <cc:Work
         rdf:about="">
        <dc:format>image/svg+xml</dc:format>
        <dc:type
           rdf:resource="http://purl.org/dc/dcmitype/StillImage" />
        <dc:title />
      </cc:Work>
    </rdf:RDF>
  </metadata>
  <g
     inkscape:label="Layer 1"
     inkscape:groupmode="layer"
     id="layer1"
     transform="translate(-77.06271,-195.49651)">
    <path
       style="font-size:144px;font-style:italic;font-variant:normal;font-weight:bold;font-stretch:normal;line-height:125%;letter-spacing:0px;word-spacing:0px;opacity:0.97000002;fill:#008080;fill-opacity:1;stroke:#008080;stroke-width:0.99981868;stroke-linecap:round;stroke-linejoin:round;stroke-miterlimit:4;stroke-opacity:1;stroke-dasharray:none;filter:url(#filter3775);font-family:Segoe UI;-inkscape-font-specification:Segoe UI Bold Italic"
       d="m 553.90625,236.1875 c -11.25934,-0.18687 -15.9439,12.35902 -23.53804,18.65484 -3.07327,3.57129 -7.89349,8.6871 -5.89946,13.56391 7.66759,7.3808 20.47631,2.14605 24.96875,-6.34375 6.1498,-6.55317 15.65721,-11.68153 16.9375,-21.375 -2.25881,-4.49668 -8.14738,-4.54304 -12.46875,-4.5 z M 644.125,238.5 c -7.18534,-1.3374 -11.70691,6.18282 -11.40625,12.5 -2.134,6.70106 -1.48272,14.68996 -5.625,20.5 -23.70168,-3.29153 -48.65118,12.5622 -54.16565,36.16552 -5.50313,16.14567 -4.28498,37.99106 11.0094,48.02198 9.23922,5.30959 20.60653,3.29817 29.77965,-0.86901 5.47318,3.62977 12.98183,3.1116 19.2516,1.83776 7.31613,-4.30735 4.11717,-14.46665 6.2744,-21.38276 4.41441,-30.36704 13.77942,-59.68798 17.8506,-90.05474 0.0968,-4.54451 -4.01567,-7.4075 -8.28125,-6.6875 -1.56259,-0.0635 -3.12403,-0.0808 -4.6875,-0.0312 z m -457,4.25 c -30.90934,0.34208 -58.74497,27.49348 -59.9375,58.4375 -2.36733,20.68752 6.31795,44.68065 26.5,53.21875 16.68938,7.26795 37.06008,6.4235 52.5625,-3.25 3.42701,-5.94705 7.15627,-15.8906 0.71875,-20.9375 -8.88672,-0.73401 -15.90655,6.87289 -24.9375,6.21875 -12.68348,1.51018 -27.60248,-5.68054 -29.53125,-19.34375 -5.88602,-21.74663 8.31922,-48.64274 31.78125,-51.375 11.0094,-2.20003 21.92072,2.19425 31.53125,6.90625 7.45852,-0.48015 8.71044,-9.84925 9.0625,-15.75 0.26205,-6.48896 -5.86267,-9.48438 -11.3125,-10.625 -8.36168,-3.03919 -17.54573,-3.82184 -26.4375,-3.5 z m 222.25,9.375 c -7.2076,1.51991 -18.02884,3.63866 -18.5,12.78125 0.59075,3.70176 -0.79876,9.41678 -5.78125,7.875 -6.18848,0.95683 -10.92621,7.2075 -10.65625,13.34375 -5.09553,3.23299 -4.88608,-4.26241 -8.0625,-6.5 -8.37176,-9.92226 -23.69502,-10.65839 -34.18453,-3.85219 -4.74091,3.59771 -7.58803,-3.76835 -12.59672,-3.08531 -6.43983,-0.77863 -15.18995,1.82007 -15.46875,9.53125 -1.8546,23.91976 -11.45708,46.81914 -12.8125,70.75 4.95256,7.00756 17.78287,6.39887 22.3125,-0.5625 3.74042,-8.38877 3.06988,-17.91043 5.75,-26.65625 2.66021,-13.32809 9.28139,-29.03106 23.78125,-32.5625 6.94737,0.47234 4.61893,9.48873 3.58302,13.85515 -2.71054,14.79427 -7.60157,29.38457 -8.30177,44.45735 1.12183,6.69875 10.24907,6.95412 15.46875,5.78125 5.44902,-0.8455 8.38925,-5.98809 8.26642,-11.11108 3.76675,-17.69321 9.37089,-35.12896 9.54608,-53.35767 3.40864,-3.8851 5.71165,2.78633 9.65625,2.375 6.05006,0.93205 1.22033,8.35654 1.09375,12.1875 -3.10235,13.49286 -8.6493,28.33896 -3.34375,41.84375 7.23241,11.40368 26.22633,13.06821 35,2.875 3.88551,-5.14097 4.90503,-16.15698 -2.8125,-18 -3.68378,-0.838 -7.90375,4.64643 -10.4375,0.1875 1.65467,-12.99722 4.76906,-26.13247 8.22201,-38.61473 4.1658,-1.57849 9.60765,0.34214 14.21549,-1.13527 4.87927,2.80947 -1.25333,8.08429 -1.46875,12.21875 -5.75317,17.17733 -2.03639,40.01131 15.25,48.84375 11.98167,5.24122 27.04933,4.73046 38.46875,-1.90625 6.35276,-3.93743 9.40487,-12.93965 6.625,-19.78125 -3.38382,-6.56538 -10.97762,-1.47201 -15.46875,0.84375 -7.08809,4.31418 -19.19547,3.76016 -22.65625,-4.875 2.17467,-4.96772 9.09129,-1.86423 13.375,-3.4375 13.03436,-1.51463 27.43374,-6.60723 33.875,-18.9375 3.90757,-3.31815 4.51094,3.27557 3.0625,5.71875 -1.75328,11.42736 -6.25382,24.76281 0.625,35.40625 8.15863,12.16083 26.23255,13.62253 37.53125,5.09375 4.37814,-0.92233 6.40724,5.09506 11,4.0625 7.36616,1.38706 16.68647,-3.28112 15.70269,-11.74405 2.15117,-23.23565 11.43117,-45.56144 12.45356,-68.69345 -4.5823,-6.43007 -15.32421,-5.72913 -20.9375,-1.3125 -5.51625,7.79388 -3.83665,18.19792 -6.6875,27.03125 -2.61387,13.64035 -8.82678,30.22693 -23.71875,34.0625 -4.6142,0.46993 -6.43247,-4.70573 -4.90625,-8.3125 2.23026,-16.07427 7.76314,-31.5164 9.25,-47.625 0.94499,-4.8766 -3.03273,-7.79678 -7.375,-8.1875 -6.36405,-1.01138 -16.01097,0.78318 -16.09375,8.875 -0.47602,5.55215 -2.14079,11.3021 -3.75,16.5 -2.77439,3.5904 -5.06768,-1.89946 -4.125,-4.46875 -1.3035,-13.08842 -13.66772,-23.16883 -26.59375,-22.4375 -12.9911,-0.67528 -25.56712,5.60269 -34,15.3125 -5.74016,-0.63142 -1.21232,-6.32673 -3.8125,-9.625 -2.16773,-5.55683 -8.67333,-4.04059 -13.25,-3.71875 -4.56714,-2.28992 0.67241,-7.36621 0.28125,-10.96875 0.9088,-4.48211 -1.00897,-10.67609 -6.59375,-10.34375 z M 258.96875,271.5 c -24.13811,0.0438 -42.58921,23.13187 -43.875,45.75 -2.82817,16.3024 5.2263,36.65252 22.78125,40.53125 23.51477,6.59397 48.90649,-11.76607 53.03125,-35.09375 5.2475,-16.94217 1.69518,-39.69842 -15.65625,-47.9375 -5.06623,-2.42976 -10.69912,-3.47344 -16.28125,-3.25 z m 433.40625,0 c -24.13811,0.0438 -42.58921,23.13187 -43.875,45.75 -2.82817,16.3024 5.2263,36.65252 22.78125,40.53125 23.51477,6.59397 48.90649,-11.76607 53.03125,-35.09375 5.2475,-16.94217 1.69518,-39.69842 -15.65625,-47.9375 -5.06623,-2.42976 -10.69912,-3.47344 -16.28125,-3.25 z M 465.1875,293 c 4.96132,-0.35891 6.1,7.47308 1.25,8.5625 -4.61571,2.57059 -11.29191,4.77727 -15.99816,2.569 -2.42187,-3.76244 3.63851,-6.86892 6.37316,-8.819 2.53066,-1.56959 5.48209,-1.99308 8.375,-2.3125 z m 153.96875,0.125 c 5.82711,0.0127 3.67804,7.06154 2.60117,10.47741 -2.66677,12.76845 -6.82139,28.50103 -20.25742,33.71009 -7.647,0.30316 -8.53938,-9.10219 -7.5,-14.71875 0.71915,-13.93739 9.37471,-29.7266 25.15625,-29.46875 z M 259.875,293.3125 c 9.10282,0.79897 10.77992,12.10414 8.9375,19.3125 -1.03759,11.51363 -9.31266,25.7969 -22.5,24.375 -9.77355,-3.30547 -8.54038,-16.04817 -6.25,-23.9375 2.31878,-9.36409 9.03874,-19.81493 19.8125,-19.75 z m 433.40625,0 c 9.10282,0.79897 10.77992,12.10414 8.9375,19.3125 -1.03759,11.51363 -9.31266,25.7969 -22.5,24.375 -9.77355,-3.30547 -8.54038,-16.04817 -6.25,-23.9375 2.31878,-9.36409 9.03874,-19.81493 19.8125,-19.75 z"
       id="text2985"
       inkscape:connector-curvature="0"
       transform="matrix(1.0011815,0,0,1.0011815,-0.12281774,-0.45160779)" />
    <path
       style="font-size:144px;font-style:italic;font-variant:normal;font-weight:bold;font-stretch:normal;line-height:125%;letter-spacing:0px;word-spacing:0px;fill:#000000;fill-opacity:1;stroke:#ffffff;stroke-width:4;stroke-linecap:round;stroke-linejoin:round;stroke-miterlimit:4;stroke-opacity:1;stroke-dasharray:none;filter:url(#filter3761-8);font-family:Segoe UI;-inkscape-font-specification:Segoe UI Bold Italic"
       d="m 548.59375,241.25 c -6.723,8.29065 -15.07861,15.67283 -20.78125,24.53125 3.40882,3.29989 11.93883,2.84867 14.85968,-1.67218 6.71676,-7.35069 14.96582,-13.70261 20.73407,-21.67157 -2.47164,-3.59498 -10.87858,-1.78183 -14.8125,-1.1875 z m 90.78125,2.09375 c -2.9827,10.94794 -4.823,22.30432 -7.375,33.40625 -18.50112,-4.67277 -39.90642,2.75012 -49.25,19.90625 -8.32774,14.37089 -11.67736,33.68795 -3.34375,48.78125 8.36196,13.41776 29.8917,12.13732 38.40625,-0.53125 2.28826,-1.79599 -2.68099,9.79677 3.1875,8.34375 4.11165,-0.99612 13.20576,2.79387 13,-3.78125 1.93167,-25.29768 9.48993,-49.82554 14.00081,-74.77506 1.69411,-10.4162 5.35065,-20.85198 5.84294,-31.25619 -4.26477,-1.43306 -10.11288,-1.13962 -14.46875,-0.0937 z m -450.5625,3.46875 c -23.89299,0.22465 -46.85554,16.32907 -53.75373,39.41743 -6.55443,20.23344 -4.80571,46.50926 13.40998,60.27007 15.78045,11.58611 37.79837,10.32023 55.09375,3 1.60101,-4.48965 5.75644,-12.5066 2.09375,-16.21875 -13.02397,6.98698 -29.94197,10.29049 -43.6875,3.0625 -14.66261,-8.30274 -15.94886,-27.97892 -12.25,-42.65625 4.00891,-17.61131 20.09703,-31.64251 38.3125,-32.21875 10.38341,-1.13488 20.33287,2.61452 29.05389,7.50594 3.98708,-2.51806 3.94704,-10.44 4.28986,-15.09969 -9.70817,-5.55953 -21.40396,-7.61533 -32.5625,-7.0625 z m 221.625,9.21875 c -4.36226,2.50873 -11.79349,1.19915 -13.95861,6.228 -2.49312,4.46893 0.11906,15.24701 -6.19764,14.99075 -7.27633,-2.12007 -10.88633,2.45718 -10.84723,9.37492 -2.85531,7.72158 9.63902,2.30944 10.76555,5.38474 -2.66137,15.34559 -7.54315,30.39193 -8.94957,45.89659 -1.11777,9.10866 6.66751,17.21128 15.78125,16.59375 4.99147,-0.35796 12.28726,-0.20641 14.77079,-5.07182 0.90737,-3.86047 4.51416,-14.36502 -3.11454,-10.49068 -3.21436,1.11607 -10.12373,3.93516 -11.4375,-0.875 0.0756,-12.82449 4.86405,-25.25172 6.84205,-37.89041 -0.0679,-7.63192 3.30014,-11.02244 10.9392,-9.14084 7.30359,2.0132 11.3258,-2.18002 11.19098,-9.37492 2.05845,-7.28845 -8.47642,-3.50258 -12.50348,-4.40633 -8.73135,2.04323 -1.44937,-8.93547 -1.8018,-13.70591 0.16923,-2.35453 2.95905,-7.7483 -1.47945,-7.51284 z M 258.34375,275.5625 c -19.68447,0.57211 -34.75975,18.22846 -37.75,36.78125 -2.96294,13.86027 -1.1572,31.65959 12.625,39.09375 17.26741,9.0346 40.13336,0.46998 49,-16.5 7.34635,-13.61231 10.50093,-31.25675 3.4375,-45.625 -5.18304,-9.91213 -16.4924,-14.65025 -27.3125,-13.75 z m 88.6875,-0.0312 c -9.4405,0.32604 -17.66097,6.34117 -23.46875,13.375 -0.073,-3.8701 4.26201,-12.32541 -2.5625,-11.65625 -4.73346,0.14967 -12.95749,-1.91886 -11.78125,5.65625 -3.63167,23.129 -10.20811,45.91565 -13.93139,68.88064 3.48025,2.54085 11.82736,2.39691 15.39081,-0.11261 3.61159,-13.88857 4.90652,-28.57771 9.85308,-42.01803 4.74516,-9.26003 12.90859,-19.94174 24.375,-20.3125 7.09892,-0.17113 8.6995,8.5656 7.125,13.90625 -2.90932,16.13852 -7.30776,32.38559 -9.61889,48.56814 3.50519,2.47125 11.80223,2.38689 15.35956,-0.14386 3.37303,-18.55382 9.03818,-36.84591 10.79058,-55.61178 0.53017,-10.72093 -8.06153,-20.9882 -19.15625,-20.53125 -0.79208,-0.025 -1.583,-0.0552 -2.375,0 z m 116.96875,0 c -22.68332,0.76139 -39.04172,22.94199 -39.71875,44.4375 -1.30421,13.17939 4.21641,28.60171 17.75,33.0625 11.55338,3.69079 25.48989,2.39592 35.36942,-4.71499 0.28758,-3.92769 5.70372,-13.69324 -0.43192,-14.00376 -9.35108,5.85685 -23.08003,10.68832 -32.59375,2.65625 -3.45694,-3.5001 -4.5067,-8.61647 -4.34375,-13.40625 15.33384,-0.63233 33.03229,-0.96392 44.65625,-12.40625 9.11706,-9.80714 6.43595,-28.17843 -6.6875,-33.21875 -4.37365,-1.98627 -9.234,-2.57262 -14,-2.40625 z m 227.75,0.0312 c -19.68447,0.57211 -34.75975,18.22846 -37.75,36.78125 -2.96294,13.86027 -1.1572,31.65959 12.625,39.09375 17.26741,9.0346 40.13336,0.46998 49,-16.5 7.34635,-13.61231 10.50093,-31.25675 3.4375,-45.625 -5.18304,-9.91213 -16.4924,-14.65025 -27.3125,-13.75 z m -184.78125,2.375 c -4.12851,18.23381 -8.69378,36.64403 -11.3125,55.1875 -0.85823,10.66012 6.93292,21.60477 18.15625,21.78125 10.65755,1.1058 20.4176,-5.34187 26.90625,-13.25 -0.81442,4.76501 -3.68501,13.77171 4.59375,11.59375 6.06004,1.4249 11.02007,-0.81366 10.08922,-7.6324 3.69907,-22.39121 9.97169,-44.60084 13.52549,-66.93477 -3.49999,-2.46521 -11.75392,-2.39953 -15.29288,0.14289 -3.79199,14.16143 -4.72828,29.31963 -10.35308,42.86178 -5.03016,9.58247 -14.05021,20.6481 -26.03125,19.21875 -7.61274,-2.13288 -5.7537,-12.1998 -4.375,-17.84375 2.95667,-14.75481 6.87905,-29.60243 9.02096,-44.37967 -3.03325,-2.86818 -10.86023,-1.3896 -14.92721,-0.74533 z M 259.375,289.34375 c 9.7687,-1.00225 15.4381,9.57885 14.3546,18.18729 -0.21654,13.27668 -6.40811,29.8777 -20.69835,33.21896 -8.04145,2.56038 -16.8654,-3.45213 -17.375,-11.9375 -2.10637,-15.32028 5.42592,-38.39053 23.71875,-39.46875 z m 205.0625,0 c 5.97322,-0.94267 12.27229,4.74384 9.25,10.78125 -4.21253,8.08249 -15.23651,8.39763 -23.1875,9.4375 -2.33537,-0.70826 -10.70328,2.71783 -7.875,-2 3.38194,-9.23342 11.36032,-18.06422 21.8125,-18.21875 z m 154.59375,0 c 3.16506,0.31337 8.74085,-0.3554 9.91866,2.10348 -3.70162,16.52388 -5.57941,36.58825 -20.29366,47.36527 -5.95248,4.72596 -16.3962,2.35377 -17.4375,-5.8125 -2.61522,-15.29843 2.51995,-34.27729 17.375,-41.5 3.30871,-1.4686 6.81494,-2.09538 10.4375,-2.15625 z m 73.75,0 c 9.7687,-1.00225 15.4381,9.57885 14.3546,18.18729 -0.21654,13.27668 -6.40811,29.8777 -20.69835,33.21896 -8.04145,2.56038 -16.8654,-3.45213 -17.375,-11.9375 -2.10637,-15.32028 5.42592,-38.39053 23.71875,-39.46875 z"
       id="text2985-3"
       inkscape:connector-curvature="0"
       transform="matrix(1.0011815,0,0,1.0011815,-0.12281774,-0.45160779)" />
  </g>
</svg>
