<svg xmlns="http://www.w3.org/2000/svg" width="69.997" height="22.003"><defs><filter color-interpolation-filters="sRGB" id="b"><feGaussianBlur stdDeviation=".525"/></filter><filter id="a" x="-.038" width="1.077" y="-.187" height="1.374" color-interpolation-filters="sRGB"><feGaussianBlur stdDeviation="9.577"/></filter></defs><g font-size="144" font-style="italic" font-weight="700" letter-spacing="0" word-spacing="0" stroke-linecap="round" stroke-linejoin="round" font-family="Segoe UI"><path transform="translate(-7.715 -19.595) scale(.10012)" d="M553.906 236.188c-11.26-.187-15.944 12.359-23.538 18.654-3.073 3.572-7.893 8.687-5.9 13.564 7.668 7.381 20.477 2.146 24.97-6.344 6.15-6.553 15.657-11.681 16.937-21.375-2.259-4.496-8.147-4.543-12.469-4.5zm90.219 2.312c-7.185-1.337-11.707 6.183-11.406 12.5-2.134 6.701-1.483 14.69-5.625 20.5-23.702-3.292-48.651 12.562-54.166 36.166-5.503 16.145-4.285 37.99 11.01 48.022 9.239 5.31 20.606 3.298 29.78-.87 5.472 3.63 12.981 3.112 19.25 1.838 7.317-4.307 4.118-14.466 6.275-21.383 4.415-30.367 13.78-59.687 17.85-90.054.098-4.545-4.015-7.408-8.28-6.688a64.78 64.78 0 0 0-4.688-.031zm-457 4.25c-30.91.342-58.745 27.493-59.938 58.438-2.367 20.687 6.318 44.68 26.5 53.218 16.69 7.268 37.06 6.424 52.563-3.25 3.427-5.947 7.156-15.89.719-20.937-8.887-.734-15.907 6.873-24.938 6.219-12.683 1.51-27.602-5.681-29.531-19.344-5.886-21.747 8.32-48.643 31.781-51.375 11.01-2.2 21.921 2.194 31.531 6.906 7.459-.48 8.71-9.85 9.063-15.75.262-6.489-5.863-9.484-11.313-10.625-8.361-3.04-17.545-3.822-26.437-3.5zm222.25 9.375c-7.208 1.52-18.029 3.639-18.5 12.781.59 3.702-.799 9.417-5.781 7.875-6.189.957-10.926 7.208-10.656 13.344-5.096 3.233-4.887-4.262-8.063-6.5-8.372-9.922-23.695-10.658-34.185-3.852-4.74 3.598-7.588-3.769-12.596-3.086-6.44-.778-15.19 1.82-15.469 9.532-1.855 23.92-11.457 46.819-12.813 70.75 4.953 7.007 17.783 6.399 22.313-.563 3.74-8.389 3.07-17.91 5.75-26.656 2.66-13.328 9.281-29.031 23.781-32.563 6.948.473 4.62 9.49 3.583 13.856-2.71 14.794-7.601 29.384-8.301 44.457 1.121 6.699 10.249 6.954 15.468 5.781 5.45-.845 8.39-5.988 8.267-11.11 3.766-17.694 9.37-35.13 9.546-53.359 3.408-3.885 5.711 2.787 9.656 2.375 6.05.933 1.22 8.357 1.094 12.188-3.103 13.493-8.65 28.339-3.344 41.844 7.232 11.403 26.226 13.068 35 2.875 3.886-5.141 4.905-16.157-2.813-18-3.683-.838-7.903 4.646-10.437.187 1.655-12.997 4.77-26.132 8.222-38.614 4.166-1.579 9.608.342 14.216-1.136 4.879 2.81-1.254 8.085-1.47 12.219-5.752 17.177-2.036 40.011 15.25 48.844 11.982 5.241 27.05 4.73 38.47-1.906 6.352-3.938 9.404-12.94 6.625-19.782-3.384-6.565-10.978-1.472-15.47.844-7.087 4.314-19.195 3.76-22.656-4.875 2.175-4.968 9.092-1.864 13.375-3.438 13.035-1.514 27.434-6.607 33.875-18.937 3.908-3.318 4.511 3.276 3.063 5.719-1.753 11.427-6.254 24.763.625 35.406 8.159 12.16 26.233 13.623 37.531 5.094 4.378-.923 6.407 5.095 11 4.062 7.366 1.387 16.687-3.28 15.703-11.744 2.151-23.235 11.431-45.561 12.453-68.693-4.582-6.43-15.324-5.73-20.937-1.313-5.516 7.794-3.837 18.198-6.688 27.031-2.613 13.64-8.826 30.227-23.718 34.063-4.614.47-6.433-4.706-4.907-8.313 2.23-16.074 7.764-31.516 9.25-47.625.945-4.876-3.032-7.796-7.375-8.187-6.364-1.011-16.01.783-16.093 8.875-.476 5.552-2.141 11.302-3.75 16.5-2.775 3.59-5.068-1.9-4.125-4.469-1.304-13.088-13.668-23.169-26.594-22.437-12.991-.676-25.567 5.602-34 15.312-5.74-.631-1.212-6.326-3.813-9.625-2.167-5.557-8.673-4.04-13.25-3.719-4.567-2.29.673-7.366.282-10.968.909-4.482-1.01-10.676-6.594-10.344zM258.969 271.5c-24.138.044-42.59 23.132-43.875 45.75-2.828 16.302 5.226 36.653 22.781 40.531 23.515 6.594 48.906-11.766 53.031-35.094 5.248-16.942 1.695-39.698-15.656-47.937-5.066-2.43-10.7-3.473-16.281-3.25zm433.406 0c-24.138.044-42.59 23.132-43.875 45.75-2.828 16.302 5.226 36.653 22.781 40.531 23.515 6.594 48.907-11.766 53.032-35.094 5.247-16.942 1.695-39.698-15.657-47.937-5.066-2.43-10.699-3.473-16.281-3.25zM465.187 293c4.962-.359 6.1 7.473 1.25 8.563-4.615 2.57-11.291 4.777-15.998 2.569-2.422-3.763 3.639-6.87 6.373-8.82 2.531-1.57 5.483-1.993 8.375-2.312zm153.97.125c5.826.013 3.677 7.062 2.6 10.477-2.666 12.769-6.821 28.501-20.257 33.71-7.647.304-8.54-9.102-7.5-14.718.72-13.938 9.375-29.727 25.156-29.469zm-359.282.188c9.103.798 10.78 12.104 8.938 19.312-1.038 11.514-9.313 25.797-22.5 24.375-9.774-3.305-8.54-16.048-6.25-23.938 2.318-9.364 9.038-19.814 19.812-19.75zm433.406 0c9.103.798 10.78 12.104 8.938 19.312-1.038 11.514-9.313 25.797-22.5 24.375-9.774-3.305-8.54-16.048-6.25-23.938 2.319-9.364 9.038-19.814 19.812-19.75z" style="line-height:125%;-inkscape-font-specification:Segoe UI Bold Italic" opacity=".97" fill="teal" stroke="teal" filter="url(#a)"/><path transform="translate(-7.715 -19.595) scale(.10012)" d="M548.594 241.25c-6.723 8.29-15.079 15.673-20.782 24.531 3.41 3.3 11.94 2.849 14.86-1.672 6.717-7.35 14.966-13.703 20.734-21.672-2.471-3.594-10.878-1.781-14.812-1.187zm90.781 2.094c-2.983 10.948-4.823 22.304-7.375 33.406-18.501-4.673-39.906 2.75-49.25 19.906-8.328 14.371-11.677 33.688-3.344 48.781 8.362 13.418 29.892 12.138 38.407-.53 2.288-1.797-2.681 9.796 3.187 8.343 4.112-.996 13.206 2.794 13-3.781 1.932-25.298 9.49-49.826 14-74.775 1.695-10.417 5.351-20.852 5.844-31.257-4.265-1.433-10.113-1.14-14.469-.093zm-450.563 3.469c-23.892.224-46.855 16.329-53.753 39.417-6.555 20.233-4.806 46.51 13.41 60.27 15.78 11.586 37.798 10.32 55.094 3 1.6-4.49 5.756-12.507 2.093-16.219-13.024 6.987-29.942 10.29-43.687 3.063-14.663-8.303-15.95-27.98-12.25-42.656 4.009-17.612 20.097-31.643 38.312-32.22 10.384-1.134 20.333 2.615 29.054 7.507 3.987-2.518 3.947-10.44 4.29-15.1-9.708-5.56-21.404-7.615-32.563-7.063zm221.625 9.218c-4.362 2.509-11.793 1.2-13.958 6.228-2.493 4.47.119 15.247-6.198 14.991-7.276-2.12-10.886 2.457-10.847 9.375-2.855 7.721 9.639 2.31 10.766 5.385-2.662 15.345-7.544 30.392-8.95 45.896-1.118 9.109 6.668 17.212 15.781 16.594 4.992-.358 12.288-.206 14.771-5.072.907-3.86 4.514-14.365-3.115-10.49-3.214 1.116-10.123 3.935-11.437-.875.076-12.825 4.864-25.252 6.842-37.89-.068-7.633 3.3-11.023 10.94-9.142 7.303 2.013 11.325-2.18 11.19-9.375 2.059-7.288-8.476-3.502-12.503-4.406-8.732 2.043-1.45-8.935-1.802-13.706.17-2.354 2.959-7.748-1.48-7.513zm-152.093 19.531c-19.685.573-34.76 18.229-37.75 36.782-2.963 13.86-1.157 31.66 12.625 39.094 17.267 9.034 40.133.47 49-16.5 7.346-13.613 10.5-31.257 3.437-45.625-5.183-9.913-16.492-14.65-27.312-13.75zm88.687-.03c-9.44.325-17.66 6.34-23.469 13.374-.073-3.87 4.263-12.325-2.562-11.656-4.733.15-12.957-1.919-11.781 5.656-3.632 23.13-10.208 45.916-13.932 68.88 3.48 2.542 11.828 2.398 15.391-.112 3.612-13.888 4.907-28.577 9.853-42.018 4.745-9.26 12.909-19.941 24.375-20.312 7.1-.171 8.7 8.565 7.125 13.906-2.91 16.139-7.308 32.386-9.619 48.568 3.506 2.471 11.803 2.387 15.36-.144 3.373-18.553 9.038-36.846 10.79-55.611.53-10.721-8.061-20.989-19.156-20.532-.792-.025-1.583-.055-2.375 0zm116.969 0c-22.683.76-39.042 22.941-39.719 44.437-1.304 13.18 4.217 28.602 17.75 33.062 11.554 3.691 25.49 2.396 35.37-4.715.287-3.927 5.703-13.693-.432-14.003-9.351 5.856-23.08 10.688-32.594 2.656-3.457-3.5-4.507-8.617-4.344-13.406 15.334-.633 33.033-.964 44.656-12.407 9.118-9.807 6.436-28.178-6.687-33.218-4.374-1.987-9.234-2.573-14-2.407zm227.75.03c-19.684.573-34.76 18.229-37.75 36.782-2.963 13.86-1.157 31.66 12.625 39.094 17.267 9.034 40.133.47 49-16.5 7.346-13.613 10.5-31.257 3.438-45.625-5.184-9.913-16.493-14.65-27.313-13.75zm-184.781 2.375c-4.129 18.234-8.694 36.645-11.313 55.188-.858 10.66 6.933 21.605 18.156 21.781 10.658 1.106 20.418-5.342 26.907-13.25-.815 4.765-3.685 13.772 4.593 11.594 6.06 1.425 11.02-.814 10.09-7.632 3.699-22.392 9.971-44.601 13.525-66.935-3.5-2.465-11.754-2.4-15.293.143-3.792 14.161-4.728 29.32-10.353 42.861-5.03 9.583-14.05 20.649-26.031 19.22-7.613-2.134-5.754-12.2-4.375-17.844 2.957-14.755 6.88-29.603 9.021-44.38-3.033-2.868-10.86-1.39-14.927-.745zm-247.594 11.407c9.769-1.002 15.438 9.579 14.355 18.187-.217 13.277-6.409 29.878-20.699 33.219-8.041 2.56-16.865-3.452-17.375-11.938-2.106-15.32 5.426-38.39 23.719-39.468zm205.063 0c5.973-.943 12.272 4.744 9.25 10.781-4.213 8.082-15.237 8.398-23.188 9.438-2.335-.709-10.703 2.717-7.875-2 3.382-9.234 11.36-18.065 21.813-18.22zm154.593 0c3.165.313 8.741-.356 9.919 2.103-3.702 16.524-5.58 36.588-20.294 47.365-5.952 4.726-16.396 2.354-17.437-5.812-2.615-15.298 2.52-34.277 17.375-41.5 3.308-1.469 6.815-2.095 10.437-2.156zm73.75 0c9.769-1.002 15.438 9.579 14.355 18.187-.217 13.277-6.408 29.878-20.698 33.219-8.042 2.56-16.866-3.452-17.375-11.938-2.107-15.32 5.425-38.39 23.718-39.468z" style="line-height:125%;-inkscape-font-specification:Segoe UI Bold Italic" stroke="#fff" stroke-width="4" filter="url(#b)"/></g></svg>