<svg xmlns="http://www.w3.org/2000/svg" width="139.192" height="48.005"><defs><filter id="b" color-interpolation-filters="sRGB"><feGaussianBlur stdDeviation=".39"/></filter><filter id="a" x="-.04" width="1.08" y="-.156" height="1.311" color-interpolation-filters="sRGB"><feGaussianBlur stdDeviation="6.828"/></filter></defs><g font-size="144" font-style="italic" font-weight="700" letter-spacing="0" word-spacing="0" stroke-linecap="round" stroke-linejoin="round" font-family="Segoe UI"><path transform="translate(-3.852 -24.941) scale(.30403)" style="line-height:125%;-inkscape-font-specification:Segoe UI Bold Italic" d="M317.219 100.813c-17.398.324-34.05 14.171-36.75 31.062-6.357-1.865-13.96-1.029-19.719 2.031-6.447 5.842-8.237 14.87-13.44 21.66-3.041 5.352-6.083 10.705-9.122 16.059-1.813-12.502-1.851-26.063-7.25-37.656-6.943-4.392-17.74-4.452-23.593 1.571-1.415 1.907.786 11.29-.97 8.179-6.878-13.956-24.9-16.364-38.531-12.656-12.836 3.615-23.441 13.41-29.563 25.156.97-17.862-5.79-37.68-22.486-46.415-11.637-7.118-25.616-8.064-38.92-7.244-8.107.157-18.268-2.249-24.75 3.753-3.741 5.746-2.388 13.183-5.008 19.408-6.009 28.89-13.56 57.797-17.554 87.091 3.306 9.007 14.111 6.207 21.498 6.434 22.994 1.276 49.151-.202 66.626-16.934 5.926-5.656 10.735-12.452 14.157-19.906-1.783 18.646 12.872 38.773 32.531 38.438 11.389.856 24.68-1.143 32.188-10.563 2.447-6.586 5.93-16.781-2.063-21.031-8.403-2.745-14.41 6.64-22.656 6.125-4.486.276-9.966-1.48-11.625-6.094 17.324-.344 38.312-3.989 47.156-20.844 1.182-.794 1.86-8.048 2.277-5.204 4.112 16.372 3.924 33.658 8.848 49.705 2.66 8.197 14.3 7.97 20.75 4.53 7-4.56 8.633-13.632 13.707-19.937 9.828-16.236 19.901-32.336 29.418-48.75 4.867 14.091 18.223 22.087 29.313 30.75 3.902 4.27 3.302 12.635-3.157 13.844-10.776 3.934-21.104-3.092-30.781-6.531-8.158-.256-9.632 9.911-10.406 16.094-.685 7.44 5.337 13.404 12.406 14.375 19.33 7.286 45.49 5.123 57.688-13.5 10.454-16.589 4.052-40.377-12.607-50.359-6.231-4.949-16.978-10.096-15.487-19.61 3.782-8.714 15.763-7.508 23-4.25 4.998 2.556 13.768 6.364 16.531-1.063 1.792-3.427 3.094-7.174 3.281-11.062 5.555 32.216 8.727 64.883 15.344 96.937 7.965 9.335 25.587 6.01 29.725-5.684 18.025-32.008 38.076-62.983 55.837-95.066 2.95-7.864-6.696-13.21-13.437-11.344-6.811-.427-14.758 1.822-16.929 9.113a29419.472 29419.472 0 01-34.634 60.606c-3.38-21.88-4.854-44.32-10.337-65.726-6.307-6.026-16.971-5.053-24.006-1.024-1.318 1.8-1.885 5.254-2.281 6.188-2.358-7.271-11.638-7.94-18.032-9.625-5.335-.93-10.78-1.103-16.187-1.031zm-230.125 28.25c11.34-.214 23.399 8.362 22.75 20.593 2.511 19.809-12.505 41.874-33.344 42.531-5.097.638-10.25.418-15.375.438l13.594-63.469c4.125-.012 8.251.05 12.375-.093zm91.375 26.187c2.961-1.25 5.206 3.28 1.781 4.219-4.03 3.04-10.748 3.836-14.813 3.594 3.065-4.188 7.795-7.61 13.032-7.813z" opacity=".97" fill="#a3ccea" stroke="#a3ccea" stroke-width=".987" filter="url(#a)"/><path transform="translate(-3.852 -24.941) scale(.30403)" style="line-height:125%;-inkscape-font-specification:Segoe UI Bold Italic" d="M320.063 106.469c-15.316-.265-31.723 10.446-33.063 26.625-2.363 14.57 8.14 27.226 19.813 34.406 7.135 4.868 16.094 11.959 13.28 21.781-2.623 11.199-16.918 11.993-26.03 9.813-6.24-.901-11.55-4.667-17.125-6.938-2.582 4.036-4.097 11.405-2.47 15.938 15.79 7.962 37.069 10.207 52-.813 13.286-10.757 14.03-33.098.75-44.219-7.735-8.667-21.828-12.948-23.75-25.562-1.763-10.054 8.626-17.404 17.876-16.438 7.674-.286 14.856 3.09 21.594 6.126 2.577-3.952 4.653-11.695 2.602-16.033-8.063-3.068-16.76-4.981-25.478-4.686zm-262.875 2.344c-7.817 33.732-14.518 67.864-21.907 101.75 2.48 5.192 11.053 1.115 15.969 2.406 19.32.448 40.499.946 56.969-10.844 20.46-14.262 28.567-42.43 22.156-66-5.126-17.683-23.477-27.912-41.125-27.969-10.614.388-21.711-.943-32.063.656zm300.812 0c.343 13.29 3.771 26.792 5.304 40.164 3.419 20.988 5.788 42.372 9.863 63.114 4.44 1.066 12.903 2.803 15.98-1.81l58.884-99.125c-.676-6.103-10.706-1.695-15.281-3.031-5.37 4.54-7.52 12.522-11.662 18.37-11.993 21.007-24.355 42.698-36.12 63.286-4.096-26.876-7.089-54.141-11.809-80.786-4.009-1.612-10.766-1.194-15.159-.182zm-274.125 14c12.194-.625 26.653 4.586 30.531 17.28 6.079 21.05-3.614 47.303-25.281 55-11.193 4.423-23.413 2.929-35.188 3.188l16.157-75.469h13.781zm94.094 12.406c-23.24.825-39.785 24.017-39.75 46.062-.985 12.987 5.157 27.75 18.531 31.719 11.432 3.311 24.98 2.013 34.647-4.999.244-3.945 5.702-13.734-.49-14.001-9.388 6.054-24.101 10.95-33.188 2-2.954-3.519-3.836-8.249-3.719-12.75 15.329-.614 33.038-.952 44.656-12.406 9.2-9.814 6.372-28.23-6.75-33.25-4.377-1.912-9.176-2.562-13.937-2.375zm34.906 2.437c-.052 10.652 3.187 21.515 4.369 32.245 2.494 14.021 3.936 28.45 7.088 42.215 4.519 1.376 13.088 2.714 14.992-3.536L280.906 140c-.58-6.054-10.417-1.728-14.875-3.031-5.364 4.544-7.489 12.54-11.617 18.396-6.424 11.54-13.22 22.881-19.414 34.541-2.283-17.347-4.313-34.984-7.528-52.068-3.95-1.66-10.28-1.128-14.597-.182zm-34.531 11.375c6.16-.993 12.527 4.996 9.187 11.125-5.02 8.282-16.524 8.269-25.094 9.25-2.141-.431-8.572 1.968-5.843-2.125 3.352-9.231 11.375-18.031 21.75-18.25z" stroke="#f6fafd" stroke-width="4" filter="url(#b)"/></g></svg>