<svg xmlns="http://www.w3.org/2000/svg" width="0" height="0">
  <defs>
    <symbol id="email" width="32" height="32" viewbox="0 0 32 32"><g fill="#030535"><path d="M32 16c0 8.837-7.163 16-16 16S0 24.837 0 16 7.163 0 16 0s16 7.163 16 16z"/><g stroke="#d3eefd" stroke-linecap="round" stroke-linejoin="round"><path stroke-width="1.2" d="M6.755 8.956h18.814v12.879H6.755z"/><path transform="matrix(1.53594 0 0 .62352 -7.746 3.447)" d="M21.592 9.019l-3.002 5.08-3.002 5.079-2.898-5.14-2.898-5.14 5.9.06z" stroke-width="1.226"/></g></g></symbol>
    <symbol id="twitter" width="32" height="32" viewbox="0 0 32 32"><path d="M32 16c0 8.837-7.163 16-16 16S0 24.837 0 16 7.163 0 16 0s16 7.163 16 16z" opacity=".97" fill="#030535"/><path d="M12.424 24.057c7.547 0 11.675-6.253 11.675-11.675 0-.177-.004-.354-.012-.53a8.345 8.345 0 0 0 2.047-2.125 8.182 8.182 0 0 1-2.356.646 4.118 4.118 0 0 0 1.804-2.27 8.23 8.23 0 0 1-2.606.996 4.104 4.104 0 0 0-6.992 3.742 11.651 11.651 0 0 1-8.458-4.287 4.092 4.092 0 0 0-.556 2.063 4.1 4.1 0 0 0 1.826 3.415 4.073 4.073 0 0 1-1.858-.513v.052a4.104 4.104 0 0 0 3.291 4.023 4.109 4.109 0 0 1-1.853.07 4.107 4.107 0 0 0 3.833 2.85 8.232 8.232 0 0 1-5.096 1.757c-.331 0-.658-.02-.979-.057a11.615 11.615 0 0 0 6.29 1.843" fill="#d3eefd"/></symbol>
    <symbol id="rss" width="32" height="32" viewbox="0 0 32 32"><path d="M32 16c0 8.837-7.163 16-16 16S0 24.837 0 16 7.163 0 16 0s16 7.163 16 16z" fill="#030535"/><path d="M11.89 22.443q0 1.023-.716 1.738-.716.716-1.739.716-1.022 0-1.738-.716-.716-.715-.716-1.738 0-1.023.716-1.738.716-.716 1.738-.716 1.023 0 1.739.716.716.715.716 1.738zm6.544 1.572q.026.358-.217.614-.23.268-.6.268H15.89q-.32 0-.55-.21-.23-.212-.255-.531-.281-2.927-2.358-5.004-2.077-2.078-5.005-2.359-.32-.025-.53-.255-.21-.23-.21-.55v-1.726q0-.37.268-.6.217-.218.55-.218h.063q2.045.166 3.912 1.03 1.866.862 3.31 2.32 1.457 1.444 2.32 3.31.863 1.866 1.03 3.911zm6.545.026q.025.345-.23.6-.23.256-.588.256h-1.828q-.333 0-.569-.223-.236-.224-.25-.544-.153-2.748-1.29-5.221-1.138-2.474-2.96-4.295-1.82-1.822-4.294-2.96-2.474-1.137-5.222-1.303-.32-.013-.543-.25-.224-.236-.224-.555V7.718q0-.358.256-.588.23-.23.562-.23h.039q3.349.166 6.41 1.534 3.061 1.367 5.439 3.758 2.39 2.377 3.758 5.438 1.368 3.062 1.534 6.41z" fill="#d3eefd"/></symbol>
    <symbol id="github" width="32" height="32" viewbox="0 0 32 32"><path d="M16 0C7.164 0 0 7.164 0 16c0 7.07 4.584 13.066 10.942 15.182.8.146 1.092-.348 1.092-.77 0-.38-.014-1.642-.022-2.978-4.45.966-5.39-1.887-5.39-1.887-.728-1.848-1.776-2.34-1.776-2.34-1.454-.992.11-.973.11-.973 1.606.112 2.452 1.649 2.452 1.649 1.428 2.445 3.746 1.738 4.656 1.328.146-1.031.56-1.738 1.016-2.137-3.552-.404-7.288-1.777-7.288-7.908 0-1.748.624-3.174 1.645-4.294-.163-.406-.713-2.034.159-4.236 0 0 1.342-.43 4.4 1.64A15.231 15.231 0 0 1 16 7.738c1.36.006 2.728.184 4.006.54 3.053-2.072 4.396-1.64 4.396-1.64.875 2.204.325 3.83.16 4.234 1.026 1.12 1.645 2.546 1.645 4.294 0 6.146-3.742 7.5-7.307 7.896.577.497 1.086 1.47 1.086 2.961 0 2.14-.021 3.864-.021 4.391 0 .426.29.924 1.101.768C27.42 29.062 32 23.066 32 16c0-8.836-7.164-16-16-16z"/></symbol>
  </defs>
</svg>
