<?xml version="1.0" encoding="UTF-8" standalone="no"?>
<!-- Created with Inkscape (http://www.inkscape.org/) -->

<svg
   xmlns:dc="http://purl.org/dc/elements/1.1/"
   xmlns:cc="http://creativecommons.org/ns#"
   xmlns:rdf="http://www.w3.org/1999/02/22-rdf-syntax-ns#"
   xmlns:svg="http://www.w3.org/2000/svg"
   xmlns="http://www.w3.org/2000/svg"
   xmlns:xlink="http://www.w3.org/1999/xlink"
   xmlns:sodipodi="http://sodipodi.sourceforge.net/DTD/sodipodi-0.dtd"
   xmlns:inkscape="http://www.inkscape.org/namespaces/inkscape"
   width="32px"
   height="32px"
   id="svg5274"
   version="1.1"
   inkscape:version="0.48.5 r10040"
   sodipodi:docname="arrow.svg">
  <defs
     id="defs5276">
    <inkscape:perspective
       sodipodi:type="inkscape:persp3d"
       inkscape:vp_x="0 : 16 : 1"
       inkscape:vp_y="0 : 1000 : 0"
       inkscape:vp_z="32 : 16 : 1"
       inkscape:persp3d-origin="16 : 10.666667 : 1"
       id="perspective5282" />
    <inkscape:perspective
       id="perspective5264"
       inkscape:persp3d-origin="0.5 : 0.33333333 : 1"
       inkscape:vp_z="1 : 0.5 : 1"
       inkscape:vp_y="0 : 1000 : 0"
       inkscape:vp_x="0 : 0.5 : 1"
       sodipodi:type="inkscape:persp3d" />
    <linearGradient
       gradientTransform="matrix(-1.9128811,0,0,1.886427,31.312817,1.1917698)"
       inkscape:collect="always"
       xlink:href="#linearGradient5188"
       id="linearGradient5194"
       x1="1.1475924"
       y1="8.2801723"
       x2="15.239121"
       y2="8.2801723"
       gradientUnits="userSpaceOnUse" />
    <linearGradient
       id="linearGradient5188">
      <stop
         style="stop-color:#0479ba;stop-opacity:1;"
         offset="0"
         id="stop5190" />
      <stop
         id="stop3758"
         offset="1"
         style="stop-color:#c7daff;stop-opacity:1;" />
    </linearGradient>
  </defs>
  <sodipodi:namedview
     id="base"
     pagecolor="#ffffff"
     bordercolor="#666666"
     borderopacity="1.0"
     inkscape:pageopacity="0.0"
     inkscape:pageshadow="2"
     inkscape:zoom="11.197802"
     inkscape:cx="16.178606"
     inkscape:cy="18.51346"
     inkscape:current-layer="layer1"
     showgrid="true"
     inkscape:grid-bbox="true"
     inkscape:document-units="px"
     inkscape:window-width="1920"
     inkscape:window-height="1027"
     inkscape:window-x="0"
     inkscape:window-y="24"
     inkscape:window-maximized="1" />
  <metadata
     id="metadata5279">
    <rdf:RDF>
      <cc:Work
         rdf:about="">
        <dc:format>image/svg+xml</dc:format>
        <dc:type
           rdf:resource="http://purl.org/dc/dcmitype/StillImage" />
        <dc:title />
      </cc:Work>
    </rdf:RDF>
  </metadata>
  <g
     id="layer1"
     inkscape:label="Layer 1"
     inkscape:groupmode="layer">
    <g
       id="g3760">
      <path
         inkscape:export-ydpi="47.957829"
         inkscape:export-xdpi="47.957829"
         inkscape:export-filename="/home/francisco/Programação/ProjetoSGBE/SGBE/src/br/com/sgbe/util/relatorio/viaw/icones/undo.png"
         d="M 8.736878,31.027507 C 8.168482,30.681734 7.900018,30.092705 7.643753,29.561246 7.401979,29.030417 7.140825,28.505302 6.974072,27.952394 6.866626,27.596139 6.854001,27.482575 6.783607,27.120745 6.650355,26.289208 6.644368,25.448394 6.637233,24.610716 c -0.0071,-0.556443 -0.01358,-1.11365 0.0815,-1.665834 0.05351,-0.310921 0.117758,-0.522966 0.199732,-0.829329 0.213843,-0.74689 0.595338,-1.448331 1.123101,-2.071607 0.116744,-0.137879 0.245986,-0.267737 0.369,-0.401604 0.505455,-0.496207 1.099746,-0.924073 1.769329,-1.251563 0.368354,-0.180154 0.574262,-0.240819 0.963693,-0.378666 0.941329,-0.296303 1.943677,-0.348064 2.936182,-0.379848 0.816464,-0.01359 1.635917,-0.0427 2.4457,0.0691 0.163093,0.02251 0.32401,0.05526 0.486016,0.0829 0.354809,0.07244 0.632573,0.116997 0.972503,0.235753 0.156398,0.05464 0.600873,0.26383 0.454358,0.19196 -1.767859,-0.867177 -1.104577,-0.56595 -0.661734,-0.204886 0.122903,0.100207 0.231379,0.212542 0.347067,0.318811 0.688158,0.71352 0.942493,1.43735 1.108438,2.330796 0.09394,0.851241 -0.145495,1.685312 -0.446969,2.489831 -0.413027,0.849334 -0.913996,1.663666 -1.348173,2.505539 -0.330457,0.762195 -0.765857,1.508695 -0.960101,2.308072 0.03062,0.663631 -0.03239,0.364683 1.672765,0.920932 0.08619,0.02812 0.136388,-0.106752 0.195447,-0.167231 0.254991,-0.261088 0.435557,-0.577302 0.625719,-0.873019 0.491744,-0.820891 0.977261,-1.64363 1.508313,-2.44674 0.602656,-0.856275 1.249616,-1.689406 1.887097,-2.527018 0.646471,-0.83816 1.29766,-1.673614 1.947254,-2.510018 0.666576,-0.857348 1.348372,-1.703599 2.106185,-2.50429 0.749079,-0.751714 1.476016,-1.520242 2.251157,-2.252759 0.482083,-0.400023 0.93695,-0.816205 1.370044,-1.254687 0.203808,-0.18289 0.371556,-0.399847 0.58933,-0.571736 0.07261,-0.05731 0.238798,-0.156065 0.320499,-0.206121 0.01779,-0.01151 0.180787,-0.109695 0.200641,-0.143727 0.289053,-0.495359 -1.027239,-0.68305 -1.593735,-0.95265 -0.03606,-0.01717 -0.08265,-9.71e-4 -0.123782,-0.0039 -0.05765,-0.0043 -0.114907,-0.01188 -0.172351,-0.01774 -0.770851,-0.08111 -1.473404,-0.354744 -2.164459,-0.640335 0.286408,0.151687 -1.258519,-0.599262 -0.947008,-0.444744 0.319881,0.158666 0.635707,0.323973 0.964273,0.469164 0.171815,0.07593 -0.329163,-0.173625 -0.493297,-0.261042 -0.50892,-0.2711 -0.480288,-0.257353 -0.986596,-0.534688 C 24.646979,10.485519 23.666481,9.9244316 22.683161,9.3669058 22.02302,8.9825066 21.372353,8.5832083 20.800641,8.1041653 20.471227,7.8281471 20.321162,7.6659879 20.020897,7.3673686 19.293809,6.5882816 18.660867,5.7506188 18.010661,4.9248793 17.420428,4.1245939 16.762563,3.3635933 16.103355,2.6042071 16.025575,2.5169481 15.947206,2.4300729 15.870019,2.3424253 c -0.06292,-0.071451 -0.12361,-0.1443156 -0.186946,-0.2155025 -0.03712,-0.04174 -0.06184,-0.096075 -0.114371,-0.1232366 -0.109416,-0.056583 -1.666586,-1.38105896 -1.685807,-0.5505367 -0.0017,0.073719 0.04322,0.1427893 0.06481,0.2141848 0.323346,0.7378493 0.743697,1.4403968 1.099645,2.166871 0.42388,0.8183929 0.731061,1.6734092 1.050652,2.523793 0.319973,0.8075116 0.434966,1.6517483 0.499643,2.4975089 0.03084,0.5424779 0.04257,1.0857368 0.03618,1.6288098 -0.0045,0.378163 0.01358,0.227571 -0.04598,0.524432 -0.02086,0.01283 -0.03936,0.04771 -0.06254,0.03829 -0.02918,-0.01188 -0.06288,-0.08974 -0.03393,-0.0775 0.505819,0.214072 0.98411,0.473055 1.486824,0.692383 0.03618,0.01584 -0.05754,-0.04959 -0.07987,-0.07855 -0.03805,-0.04936 -0.08856,-0.161196 -0.11443,-0.214613 -0.08679,-0.116525 -0.13107,-0.201751 -0.280564,-0.27875 -1.506952,-0.776181 -1.524157,-0.898905 -2.873635,-1.042026 -0.951948,-0.076439 -1.908054,-0.086889 -2.861143,-0.02728 -1.138001,0.11726 -2.232801,0.419617 -3.329269,0.691408 -1.011306,0.269367 -2.036084,0.529301 -2.996801,0.91631 -0.198481,0.07997 -0.39,0.171947 -0.585003,0.257912 -0.926727,0.454939 -1.769132,1.037433 -2.436974,1.75305 -0.122137,0.130862 -0.230515,0.270649 -0.345765,0.405972 -0.386725,0.526659 -0.729904,1.0816 -0.957674,1.673729 -0.13854999,0.360162 -0.15480899,0.478759 -0.24449499,0.847565 -0.165081,0.83393 -0.16992,1.681986 -0.177094,2.525228 -0.03481,0.86972 0.0736,1.730551 0.25241,2.584933 0.21938599,0.869247 0.53077499,1.718533 0.86958199,2.558517 0.317444,0.902099 0.858626,1.721639 1.420436,2.525836 0.600568,0.902615 1.374425,1.587151 2.303384,2.243055 0.821827,0.539152 1.689181,1.026194 2.548003,1.521182 0.08671,0.04676 0.173442,0.09353 0.260159,0.140292 0,0 1.639966,0.540902 1.639966,0.540902 l 0,0 C 9.896252,31.159684 9.803049,31.112774 9.709859,31.065828 8.829209,30.57706 7.954883,30.076569 7.111023,29.542774 6.197329,28.920491 5.367188,28.223803 4.786773,27.346839 4.226506,26.553031 3.679806,25.745108 3.363207,24.852629 3.022206,24.019347 2.71216,23.176163 2.483332,22.314735 2.299869,21.469397 2.18753,20.618376 2.222602,19.756638 c 0.0056,-0.834984 0.0071,-1.674383 0.159323,-2.501418 0.0821,-0.357955 0.09805,-0.480456 0.2275,-0.830306 0.215451,-0.582284 0.549882,-1.126193 0.921932,-1.645507 0.110948,-0.132579 0.214802,-0.269668 0.332826,-0.397712 0.649864,-0.705043 1.47869,-1.273681 2.392268,-1.711872 0.192692,-0.08328 0.382163,-0.172231 0.578077,-0.249862 0.962766,-0.381476 1.987848,-0.630939 3.00068,-0.893217 1.091952,-0.270488 2.184816,-0.568789 3.323378,-0.656273 0.953033,-0.04534 1.909948,-0.03441 2.858702,0.06339 0.307388,0.04245 0.486514,0.05744 0.781616,0.134596 0.107255,0.02803 0.408011,0.154649 0.314902,0.101282 -0.407148,-0.233384 -0.839911,-0.432518 -1.262766,-0.644609 -0.06262,-0.03141 0.125217,0.06366 0.181896,0.10247 0.04213,0.02884 0.07519,0.06619 0.112802,0.09928 0.0232,0.04418 0.134859,0.334569 0.158255,0.347455 0.533572,0.293845 1.076847,0.577846 1.644558,0.820727 0.04461,0.0191 0.09667,-0.03045 0.131606,-0.06084 0.03823,-0.03326 0.05267,-0.0816 0.079,-0.122429 0.06346,-0.730613 -0.02759,-1.469096 -0.02928,-2.2006637 C 18.069257,8.6543536 17.961908,7.7977328 17.642631,6.9784374 17.320002,6.1257902 17.019505,5.2656555 16.59656,4.4435713 16.256796,3.7326704 15.851833,3.0449332 15.553813,2.3200122 c -0.01931,-0.056592 -0.01549,-0.1232441 -0.05794,-0.1697804 -0.01702,-0.018638 -0.05588,0.029572 -0.08016,0.01826 -0.508556,-0.2370463 -0.990092,-0.5146101 -1.497403,-0.7535952 -0.06013,-0.028326 0.1059,0.075397 0.151215,0.1194394 0.160611,0.1561106 0.280569,0.3406998 0.452188,0.4893296 0.683566,0.7518314 1.348534,1.5170033 1.940715,2.3239716 0.652048,0.8277416 1.28429,1.6681872 2.001635,2.4567752 0.286457,0.2921839 0.460279,0.4816264 0.77442,0.7533323 0.564791,0.4884959 1.210939,0.8954077 1.871069,1.284136 0.982794,0.5581071 1.964775,1.1171496 2.94963,1.6726053 1.422267,0.785175 2.870051,1.538785 4.375144,2.203866 0.723205,0.291768 1.462491,0.552194 2.260918,0.648941 0.0605,0.0099 0.121813,0.01642 0.181514,0.02939 0.03673,0.008 0.138856,0.05017 0.10693,0.03276 -0.482853,-0.263182 -0.990014,-0.494166 -1.461979,-0.771348 -0.02567,-0.0151 0.05475,-0.05376 0.08113,-0.03961 0.06395,0.03434 -0.292103,0.12475 -0.163762,0.133654 -0.06531,0.04363 -0.286542,0.189764 -0.338203,0.231751 -0.215784,0.175362 -0.376642,0.398426 -0.576544,0.585768 -0.418598,0.441959 -0.872326,0.854945 -1.32476,1.271708 -0.340155,0.33253 -0.654087,0.679723 -0.981393,1.021404 -0.556771,0.581218 -0.255882,0.258249 -0.830691,0.836042 -0.137689,0.138407 -0.27242,0.278921 -0.40863,0.418382 -0.766528,0.801336 -1.454415,1.649522 -2.123807,2.511509 -0.650261,0.836571 -1.30075,1.672957 -1.94834,2.511028 -0.639695,0.839916 -1.285574,1.677021 -1.895688,2.532841 -0.534613,0.80089 -1.021055,1.62295 -1.533491,2.43404 -0.146355,0.211328 -0.273301,0.409325 -0.445665,0.605513 -0.06008,0.06838 -0.121373,0.137333 -0.195777,0.194584 -0.04401,0.03386 -0.200994,0.04351 -0.154559,0.07494 1.701288,1.151462 1.690566,1.173029 1.352533,0.678101 0.0063,-0.08585 -9.49e-4,-0.173155 0.01876,-0.257535 0.04578,-0.19662 0.226663,-0.610246 0.302284,-0.7863 0.180291,-0.419718 0.3628,-0.839189 0.566149,-1.251239 0.101879,-0.198338 0.326218,-0.638259 0.433535,-0.834384 0.307176,-0.561364 0.668667,-1.10146 0.92694,-1.681915 0.317622,-0.82161 0.564414,-1.675679 0.488598,-2.547755 -0.155096,-0.911928 -0.397755,-1.664905 -1.071662,-2.409448 -0.173764,-0.171704 -0.482997,-0.502391 -0.712299,-0.629537 -1.232274,-0.683268 -1.997256,-1.130165 -3.341203,-1.357743 -0.998917,-0.151971 -1.944249,-0.17027 -2.956334,-0.125977 -1.005291,0.03936 -2.018403,0.10683 -2.963686,0.427686 -0.417881,0.155989 -0.577691,0.202459 -0.972693,0.403761 -0.676587,0.344807 -1.276204,0.787553 -1.789656,1.296406 -0.728561,0.787524 -1.272933,1.529402 -1.551131,2.517783 -0.08107,0.295023 -0.156186,0.543162 -0.210908,0.842919 -0.101709,0.557002 -0.100886,1.119363 -0.09149,1.681367 0.0059,0.844457 0.01052,1.691758 0.136504,2.530803 0.06715,0.366621 0.07968,0.486183 0.183522,0.847679 0.159686,0.555944 0.415261,1.083642 0.651347,1.617838 0.241721,0.541114 0.493783,1.093651 0.961697,1.525817 0,0 1.694547,0.557627 1.694547,0.557627 z"
         id="path2840"
         style="opacity:0.98999999000000005;fill:#265984;fill-rule:nonzero;fill-opacity:1" />
      <path
         sodipodi:nodetypes="cssssssccccccsssssssssssssscc"
         inkscape:export-filename="/home/francisco/Programação/ProjetoSGBE/SGBE/src/br/com/sgbe/util/relatorio/viaw/icones/undo.png"
         inkscape:export-ydpi="47.957829"
         inkscape:export-xdpi="47.957829"
         id="path5106"
         d="M 5.860688,28.505382 C 5.836968,28.429072 5.56113,27.850329 5.466043,27.546719 5.197669,26.689843 5.108711,25.824635 5.108711,24.07135 c 0,-1.669722 0.103353,-2.370068 0.481745,-3.264288 0.383188,-0.905564 1.439395,-2.155346 2.340968,-2.770002 1.163702,-0.793369 2.405549,-1.145073 4.471811,-1.266467 2.544205,-0.149479 3.910107,0.07407 5.627779,0.920975 1.815529,0.895172 2.631292,2.018197 2.75688,3.795282 l -0.22028,1.120613 0.64933,-0.950647 c 2.229164,-2.946313 3.398445,-4.287566 5.952038,-6.827447 L 28.998054,13.010127 28.32068,12.710983 C 26.470454,11.893882 21.937702,9.4532488 20.318487,8.4022485 19.41805,7.8177957 18.65603,7.1215647 17.819829,6.1193148 17.446747,5.6721507 16.860058,4.9624216 16.843519,4.9787322 c -0.01645,0.016317 0.408315,0.8413477 0.616696,1.3968219 0.569105,1.5171157 0.746296,2.5465843 0.746755,4.3385699 2.6e-4,1.020955 -0.03639,1.217953 -0.226563,1.217953 -0.148498,0 -1.270155,-0.548421 -1.61916,-0.791661 -0.223945,-0.156083 -0.411145,-0.179531 -1.69551,-0.212497 -1.766085,-0.04531 -2.331059,0.0296 -4.688175,0.621597 -3.407593,0.855835 -4.507205,1.364659 -5.861073,2.712106 -0.522937,0.520456 -0.789005,0.87423 -1.09586,1.457093 -0.55597,1.056047 -0.667527,1.578222 -0.725175,3.39439 -0.05961,1.877956 0.062,2.728553 0.625659,4.376604 0.50519,1.477059 0.913861,2.332659 1.609672,3.370027 0.560247,0.835256 1.232944,1.64026 1.151297,1.377736 l 0.178606,0.26791 z"
         style="opacity:0.98999999000000005;fill:url(#linearGradient5194);fill-opacity:1;fill-rule:nonzero;stroke:none;stroke-width:0.08557643000000000;stroke-opacity:1" />
    </g>
  </g>
</svg>
