<?xml version="1.0" encoding="UTF-8" standalone="no"?>
<!-- Created with Inkscape (http://www.inkscape.org/) -->

<svg
   xmlns:dc="http://purl.org/dc/elements/1.1/"
   xmlns:cc="http://creativecommons.org/ns#"
   xmlns:rdf="http://www.w3.org/1999/02/22-rdf-syntax-ns#"
   xmlns:svg="http://www.w3.org/2000/svg"
   xmlns="http://www.w3.org/2000/svg"
   xmlns:sodipodi="http://sodipodi.sourceforge.net/DTD/sodipodi-0.dtd"
   xmlns:inkscape="http://www.inkscape.org/namespaces/inkscape"
   width="473.9436"
   height="170.14935"
   id="svg2"
   version="1.1"
   inkscape:version="0.48.5 r10040"
   sodipodi:docname="devsv.svg">
  <defs
     id="defs4">
    <filter
       color-interpolation-filters="sRGB"
       inkscape:collect="always"
       id="filter3801-9">
      <feGaussianBlur
         inkscape:collect="always"
         stdDeviation="0.39026367"
         id="feGaussianBlur3803-6" />
    </filter>
    <filter
       inkscape:collect="always"
       id="filter3840"
       x="-0.039963555"
       width="1.0799271"
       y="-0.15567251"
       height="1.311345"
       color-interpolation-filters="sRGB">
      <feGaussianBlur
         inkscape:collect="always"
         stdDeviation="6.8284082"
         id="feGaussianBlur3842" />
    </filter>
  </defs>
  <sodipodi:namedview
     id="base"
     pagecolor="#ffffff"
     bordercolor="#666666"
     borderopacity="1.0"
     inkscape:pageopacity="0.0"
     inkscape:pageshadow="2"
     inkscape:zoom="2.8"
     inkscape:cx="247.07007"
     inkscape:cy="85.09768"
     inkscape:document-units="px"
     inkscape:current-layer="g3877"
     showgrid="false"
     fit-margin-top="10"
     fit-margin-left="10"
     fit-margin-right="10"
     fit-margin-bottom="10"
     inkscape:window-width="1920"
     inkscape:window-height="1027"
     inkscape:window-x="0"
     inkscape:window-y="24"
     inkscape:window-maximized="1" />
  <metadata
     id="metadata7">
    <rdf:RDF>
      <cc:Work
         rdf:about="">
        <dc:format>image/svg+xml</dc:format>
        <dc:type
           rdf:resource="http://purl.org/dc/dcmitype/StillImage" />
        <dc:title></dc:title>
      </cc:Work>
    </rdf:RDF>
  </metadata>
  <g
     inkscape:label="Layer 1"
     inkscape:groupmode="layer"
     id="layer1"
     transform="translate(-4.5138307,-75.9081)">
    <flowRoot
       xml:space="preserve"
       id="flowRoot2985"
       style="font-size:40px;font-style:normal;font-weight:normal;line-height:125%;letter-spacing:0px;word-spacing:0px;fill:#000000;fill-opacity:1;stroke:none;font-family:Sans"><flowRegion
         id="flowRegion2987"><rect
           id="rect2989"
           width="2.8571429"
           height="97.14286"
           x="88.571426"
           y="332.36218" /></flowRegion><flowPara
         id="flowPara2991" /></flowRoot>    <g
       id="g3877"
       inkscape:export-filename="/home/yuzo/Downloads/logo.png"
       inkscape:export-xdpi="28.77"
       inkscape:export-ydpi="28.77">
      <g
         id="g3766"
         inkscape:export-filename="/home/yuzo/Downloads/logo.png"
         inkscape:export-xdpi="28.019669"
         inkscape:export-ydpi="28.019669">
        <path
           inkscape:connector-curvature="0"
           id="text2993"
           d="m 317.21875,100.8125 c -17.39824,0.32433 -34.04929,14.17166 -36.75,31.0625 -6.35698,-1.86473 -13.95973,-1.02877 -19.71875,2.03125 -6.44692,5.84133 -8.23675,14.87051 -13.43916,21.65958 -3.04223,5.35242 -6.0836,10.70533 -9.12334,16.05917 -1.81239,-12.50237 -1.85065,-26.06254 -7.25,-37.65625 -6.94234,-4.39218 -17.73863,-4.4514 -23.59289,1.57129 -1.41484,1.90694 0.78643,11.28996 -0.96961,8.17871 -6.87808,-13.95617 -24.89943,-16.36374 -38.53125,-12.65625 -12.83592,3.61539 -23.44111,13.41087 -29.5625,25.15625 0.9705,-17.86166 -5.79043,-37.68058 -22.48593,-46.41498 -11.63749,-7.11801 -25.616342,-8.06418 -38.919746,-7.2439 -8.107875,0.15685 -18.268625,-2.24867 -24.750574,3.75263 -3.741302,5.74698 -2.388051,13.18318 -5.007781,19.40831 -6.009144,28.89064 -13.560272,57.7975 -17.554719,87.09169 3.306156,9.0063 14.111742,6.20607 21.498274,6.43372 22.994357,1.27538 49.151666,-0.2019 66.626726,-16.93372 5.92572,-5.65637 10.73467,-12.4521 14.15625,-19.90625 -1.78279,18.64539 12.87246,38.77281 32.53125,38.4375 11.38861,0.85591 24.6798,-1.14285 32.1875,-10.5625 2.44769,-6.58662 5.92961,-16.78173 -2.0625,-21.03125 -8.40266,-2.74469 -14.40931,6.64002 -22.65625,6.125 -4.48605,0.27561 -9.96546,-1.48064 -11.625,-6.09375 17.32427,-0.34443 38.31215,-3.98911 47.15625,-20.84375 1.18249,-0.7944 1.86009,-8.04816 2.27687,-5.20441 4.11195,16.37156 3.92445,33.6576 8.84813,49.70441 2.66015,8.19774 14.30024,7.97024 20.75,4.53125 6.99942,-4.56168 8.63286,-13.63307 13.70709,-19.93794 9.82786,-16.23545 19.90129,-32.33541 29.41791,-48.74956 4.8672,14.09109 18.2226,22.08656 29.3125,30.75 3.90235,4.27019 3.30292,12.63498 -3.15625,13.84375 -10.77589,3.93426 -21.10465,-3.09225 -30.78125,-6.53125 -8.15845,-0.25619 -9.63245,9.91157 -10.40625,16.09375 -0.68464,7.44017 5.33729,13.4044 12.40625,14.375 19.32987,7.28614 45.48971,5.12327 57.6875,-13.5 10.4548,-16.5884 4.05267,-40.37697 -12.60638,-50.35808 -6.23151,-4.9493 -16.97841,-10.09646 -15.48737,-19.61067 3.78222,-8.71379 15.76355,-7.50813 23,-4.25 4.99799,2.55673 13.76781,6.36426 16.53125,-1.0625 1.79175,-3.42681 3.09412,-7.17385 3.28125,-11.0625 5.55452,32.21591 8.72719,64.88365 15.34375,96.9375 7.96524,9.33487 25.58718,6.01007 29.72473,-5.6839 18.02545,-32.00817 38.07599,-62.9831 55.83777,-95.0661 2.949,-7.86421 -6.69606,-13.21028 -13.4375,-11.34375 -6.81121,-0.42705 -14.75756,1.82122 -16.92856,9.11218 -11.52322,20.21444 -23.06279,40.41953 -34.63394,60.60657 -3.37972,-21.88014 -4.85462,-44.32063 -10.33799,-65.7258 -6.30634,-6.02647 -16.97057,-5.05303 -24.00576,-1.0242 -1.3181,1.79886 -1.88471,5.25342 -2.28125,6.1875 -2.35733,-7.2712 -11.63772,-7.94011 -18.03125,-9.625 -5.33568,-0.92957 -10.77972,-1.10324 -16.1875,-1.03125 z m -230.125,28.25 c 11.339493,-0.21321 23.3989,8.36217 22.75,20.59375 2.51142,19.80847 -12.505072,41.87376 -33.34375,42.53125 -5.097183,0.63778 -10.250388,0.41785 -15.375,0.4375 4.53125,-21.15625 9.0625,-42.3125 13.59375,-63.46875 4.125247,-0.0121 8.251336,0.0502 12.375,-0.0937 z m 91.375,26.1875 c 2.9614,-1.24958 5.20587,3.28047 1.78125,4.21875 -4.02976,3.0406 -10.74793,3.83654 -14.8125,3.59375 3.06481,-4.1871 7.79482,-7.60879 13.03125,-7.8125 z"
           style="font-size:144px;font-style:italic;font-variant:normal;font-weight:bold;font-stretch:normal;line-height:125%;letter-spacing:0px;word-spacing:0px;opacity:0.97000002;fill:#008080;fill-opacity:1;stroke:#008080;stroke-width:1;stroke-linecap:round;stroke-linejoin:round;stroke-miterlimit:4;stroke-opacity:1;stroke-dasharray:none;filter:url(#filter3840);font-family:Segoe UI;-inkscape-font-specification:Segoe UI Bold Italic" />
        <path
           inkscape:connector-curvature="0"
           id="text2993-2"
           d="m 320.0625,106.46875 c -15.31536,-0.26518 -31.72207,10.44651 -33.0625,26.625 -2.3627,14.5707 8.1406,27.22643 19.8125,34.40625 7.13532,4.86754 16.09444,11.95864 13.28125,21.78125 -2.62379,11.19865 -16.91826,11.99324 -26.03125,9.8125 -6.23856,-0.90085 -11.54857,-4.66627 -17.125,-6.9375 -2.58134,4.03584 -4.09651,11.40479 -2.46875,15.9375 15.78888,7.96268 37.06829,10.20702 52,-0.8125 13.28506,-10.75732 14.02937,-33.09778 0.75,-44.21875 -7.73624,-8.66744 -21.82924,-12.94867 -23.75,-25.5625 -1.76372,-10.05411 8.62559,-17.40438 17.875,-16.4375 7.6742,-0.28632 14.85601,3.08911 21.59375,6.125 2.57788,-3.95136 4.65361,-11.69456 2.60269,-16.03273 -8.06336,-3.06826 -16.7608,-4.98105 -25.47769,-4.68602 z m -262.875,2.34375 c -7.816779,33.73263 -14.517511,67.86432 -21.90625,101.75 2.47883,5.19218 11.052456,1.11513 15.96875,2.40625 19.320494,0.44787 40.498592,0.9467 56.96875,-10.84375 20.46042,-14.26168 28.56746,-42.43013 22.15625,-66 -5.12589,-17.68282 -23.47727,-27.91205 -41.125,-27.96875 -10.613867,0.38744 -21.711091,-0.9429 -32.0625,0.65625 z m 300.8125,0 c 0.34319,13.28993 3.77105,26.79224 5.30425,40.16411 3.41845,20.98861 5.78796,42.37267 9.86245,63.11396 4.43941,1.06625 12.90376,2.80331 15.97976,-1.81005 19.62826,-33.04143 39.25653,-66.08285 58.88479,-99.12427 -0.67671,-6.10321 -10.70627,-1.69524 -15.28125,-3.03125 -5.37006,4.54048 -7.52085,12.52171 -11.66241,18.37078 -11.99273,21.00662 -24.35476,42.69754 -36.11884,63.28547 -4.09692,-26.87628 -7.08936,-54.1413 -11.80955,-80.78656 -4.00881,-1.61167 -10.76654,-1.1939 -15.1592,-0.18219 z m -274.125,14 c 12.194149,-0.62455 26.65324,4.58695 30.53125,17.28125 6.07833,21.04905 -3.61436,47.30216 -25.28125,55 -11.192784,4.42266 -23.412549,2.92801 -35.1875,3.1875 5.385417,-25.15625 10.770833,-50.3125 16.15625,-75.46875 4.59375,0 9.1875,0 13.78125,0 z m 94.09375,12.40625 c -23.24003,0.82515 -39.78465,24.01748 -39.75,46.0625 -0.98488,12.9867 5.15751,27.75008 18.53125,31.71875 11.43152,3.31118 24.98074,2.01321 34.6473,-4.99868 0.24321,-3.9451 5.70146,-13.73441 -0.49105,-14.00132 -9.38746,6.05408 -24.10025,10.94919 -33.1875,2 -2.95386,-3.51874 -3.83574,-8.24854 -3.71875,-12.75 15.3286,-0.61438 33.03757,-0.95219 44.65625,-12.40625 9.20017,-9.81355 6.37146,-28.23009 -6.75,-33.25 -4.37717,-1.91173 -9.1763,-2.56176 -13.9375,-2.375 z m 34.90625,2.4375 c -0.0518,10.65206 3.18734,21.51442 4.36882,32.24522 2.49433,14.02052 3.93616,28.44893 7.08774,42.21474 4.51944,1.37567 13.08892,2.7134 14.99234,-3.53658 13.86078,-22.85988 27.72157,-45.71975 41.58235,-68.57963 -0.58113,-6.0537 -10.41743,-1.72769 -14.875,-3.03125 -5.36418,4.54382 -7.48923,12.5397 -11.61721,18.3965 -6.42383,11.53914 -13.21984,22.88102 -19.41404,34.541 -2.28278,-17.34699 -4.31346,-34.98393 -7.5283,-52.06781 -3.94883,-1.66106 -10.27951,-1.12874 -14.5967,-0.18219 z m -34.53125,11.375 c 6.16002,-0.99276 12.52701,4.99531 9.1875,11.125 -5.02071,8.28162 -16.52379,8.26864 -25.09375,9.25 -2.14166,-0.43165 -8.57268,1.96782 -5.84375,-2.125 3.35221,-9.23169 11.37518,-18.03151 21.75,-18.25 z"
           style="font-size:144px;font-style:italic;font-variant:normal;font-weight:bold;font-stretch:normal;line-height:125%;letter-spacing:0px;word-spacing:0px;fill:#000000;fill-opacity:1;stroke:#ffffff;stroke-width:4;stroke-linecap:round;stroke-linejoin:round;stroke-miterlimit:4;stroke-opacity:1;stroke-dasharray:none;filter:url(#filter3801-9);font-family:Segoe UI;-inkscape-font-specification:Segoe UI Bold Italic" />
      </g>
    </g>
  </g>
</svg>
